<mxfile host="app.diagrams.net" agent="Mozilla/5.0 (Windows NT 10.0; Win64; x64) AppleWebKit/537.36 (KHTML, like Gecko) Chrome/127.0.0.0 Safari/537.36 Edg/127.0.0.0" version="24.7.6">
  <diagram name="Page-1" id="_H30JTs4QD1bRTTgZGmt">
    <mxGraphModel dx="1710" dy="735" grid="1" gridSize="10" guides="1" tooltips="1" connect="1" arrows="1" fold="1" page="1" pageScale="1" pageWidth="850" pageHeight="1100" math="0" shadow="0">
      <root>
        <mxCell id="0" />
        <mxCell id="1" parent="0" />
        <mxCell id="FLXqESvb-L9VidNTGPHK-4" value="" style="rounded=0;whiteSpace=wrap;html=1;" vertex="1" parent="1">
          <mxGeometry y="407.5" width="850" height="440" as="geometry" />
        </mxCell>
        <mxCell id="FLXqESvb-L9VidNTGPHK-7" value="" style="shape=image;verticalLabelPosition=bottom;labelBackgroundColor=default;verticalAlign=top;aspect=fixed;imageAspect=0;image=data:image/png,iVBORw0KGgoAAAANSUhEUgAADwAAAAhwBAMAAABikNZBAAAAGFBMVEVHcExiZ3F2a2NfY2hChfT7vAXqQzU0qFM9AFjpAAAAA3RSTlMATKUABpOwAAAgAElEQVR42uzBAQEAAACAkP6v7ggKAAAAAAAAAAAAAAAAAAAAAAAAAAAAAAAAAAAAAAAAAAAAAAAAAAAAAAAAAAAAAAAAAAAAAAAAAAAAAAAAAAAAAAAAAAAAAAAAAAAAAAAAAAAAAAAAAAAAAAAAAAAAAAAAAAAAAAAAAAAAAAAAAAAAAAAAAAAAAAAAAAAAAAAAAAAAAAAAAAAAAAAAAAAAAAAAAAAAAAAAAAAAAAAAAAAAAAAAAAAAAAAAAAAAAAAAAAAAAAAAAAAAAAAAAAAAAAAAAAAAAAAAAAAAAAAAAAAAAAAAAAAAAAAAAAAAAAAAAAAAAAAAAAAAAAAAAAAAAAAAAAAAAAAAAAAAAAAAAAAAAAAAAAAAAAAAAAAAAAAAAAAAAAAAAAAAAAAAAAAAAAAAAAAAAAAAAAAAAAAAAAAAAAAAAAAAAAAAAAAAAAAAAAAAAAAAAAAAAAAAAAAAAAAAAAAAAAAAAAAAAAAAAAAAAAAAAAAAAAAAAAAAAAAAAAAAAAAAAAAAAAAAAAAAAAAAAAAAAAAAAAAAAAAAAAAAAAAAAAAAAAAAAAAAAAAAAAAAAAAAAAAAAAAAAAAAAAAAAAAAAAAAAAAAAAAAAAAAAAAAAAAAAAAAAAAAAAAAAAAAAAAAAAAAAAAAAAAAAAAAAAAAAAAAAAAAAAAAAAAAAAAAAAAAAAAAAAAAAAAAgNmDAwEAAAAAIP/XRlBVVVVVVVVVVVVVVVVVVVVVVVVVVVVVVVVVVVVVVVVVVVVVVVVVVVVVVVVVVVVVVVVVVVVVVVVVVVVVVVVVVVVVVVVVVVVVVVVVVVVVVVVVVVVVVVVVVVVVVVVVVVVVVVVVVVVVVVVVVVVVVVVVVVVVVVVVVVVVVVVVVVVVVVVVVVVVVVVVVVVVVVVVVVVVVVVVVVVVVVVVVVVVVVVVVVVVVVVVVVVVVVVVVVVVVVVVVVVVVVVVVVVVVVVVVVVVVVVVVVVVVVVVVVVVVVVVVVVVVVVVVVVVVVVVVVVVVVVVVVVVVVVVVVVVVVVVVVVVVVVVVVVVVVVVVVVVVVVVVVVVVVVVVVVVVVVVVVVVVVVVVVVVVVVVVVVVVVVVVVVVVVVVVVVVVVVVVVVVVVVVVVVVVVVVVVVVVVVVVVVVVVVVVVVVVVVVVVVVVVVVVVVVVVVVVVVVVVVVVVVVVVVVVVVVVVVVVVVVVVVVVVVVVVVVVVVVVVVVVVVVVVVVVVVVVVVVVVVVVVVVVVVVVVVVVVVVVVVVVVVVVVVVVVVVVVVVVVVVVVVVVVVVVVVVVVVVVVVVVVVVVVVVVVVVVVVVVVVVVVVVVVVVVVVVVVVVVVVVVVVVVVVVVVVVVVVVVVVVVVVVVVVVVVVVVVVVVVVVVVVVVVVVVVVVVVVVVVVVVVVVYd/OkRoGggCK4htoJnCuCXQwBX3/I2CqKANlMFpmCfxepLiTX92SAAAAAAAAAAAAAAAAAAAAAAAAAAAAAAAAAAAAAAAAAAAAAAAAAAAAAAAAAAAAAAAAAAAAAAAAAAAAAAAAAAAAAAAAAAAAAAAAAAAAAAAAAAAAAAAAAAAAAAAAAAAAAAAAAAAAAAAAAAAAAAAAAAAAAAAAAAAAAAAAAAAAAAAAAAAAAAAAAAAAAAAAAAAAAAAAAAAAAAAAAAAAAAAAAAAAAAAAAAAAAAAAAAAAAAAAAAAAAAAAAAAAAAAAAAAAAAAAAAAAAAAAAAAAAAAAAAAAAAAAAAAAAAAAAAAAAAAAAAAAAAAAAAAAAAAAAAAAAAAAAAAAAAAAAAAAAAAAAAAAAAAAAAAAAAAAAAAAAAAAAAAAAAAAAAAAAAAAAAAAAAAAAAAAAAAAAAAAAAAAAAAAAAAAAAAAAAAAAAAAAAAAAAAAAAAAAAAAAAAAAAAAAAAAAAAAAAAAAAAAAAAAAAAAAAAAAAAAAAAAAAAAAAAAAAAAAAAAAAAAAAAAAAAAAAAAAAAAAAAAAAAAAAAAAAAAAAAAAAAAAAAAAAAAAAAAAAAAAAAAAAAAAAAAAAAAAAAAgBouKaX5Q749GAcANC9vKSUerCXrMAA0kX5L748Kp8mUAKDm5pufx/dbhA0LACrVd4kdNBgAzttX388GT+YGAGeW3zhmnQ0PAI5JJU6YrcEAcGD7XeIkCQaA7vmVYADYm98SlXgXDABb5ajH51gAsC2/S1S1TmYKAP+4VM6vOzQAbFh/owVLMAB0Xn8twQAwYv21BAPAM9doyhIMAI/anZ8VGAD+kqM9Z2gA6N/fGwUGgC/tz8/O0AAwrr8KDAD3/kZPq4EDwFu3178+xQKAgf1VYAAY0V8FBoAR/fU7EgCv7hqhwADwKv1VYAD0V4GBd/bOJbdxJAuAlbShNT8Nrk2ywbVNXkDd4AkGsNfdhTLvf4RR2a5q27AkfvL7XsQAM7Mq25Iyg5GZpADAI+U8Y2AAAABd/sXAAACAf4PA3UgAAKCPbJ4xMAAAgEL/8lxoAADQhpnj4F/eCgAA0OTffsbAAAAAvonGv/N8x7sBAAD4FwMDAAC4op6jIucdAQAADWRx+Zej0AAAoAIzxwYHsQAAQIF/++gEPDe8LQAAIJ0I/ctBLAAAEE85R0nOOwMAAJLJ4vQvB7EAAEA0po9UwBzEAgAAyUTrX7aBAQBAMGW8/uWrCQEAQCxmjhkWoQEAQCh91AJmERoAAGRSz5GT8x4BAIA8stj9y71IAAAgkT56AbMIDQAA8qjnBMh5nwAAQBZZCv5lERoAAKTRJyFgFqEBAEAW9ZwIOe8VAADIwaTiXx7HAQAAkuiTETCL0AAAIIdyTgjeLgAAEIJJyb8sQgMAgBTqpATMOSwAAJBBlpZ/uRkYAABk0CcmYM5hAQCABA5zcvCmAQBA8pj0/Ms5LAAASJ86QQFzDgsAAAjgEPyDgQEAIG36JAX84y/eOQAASJksSf/O00QCAwAAAew9gKeJBAYAAALYfwBP0x3vHgAAEMC+A/gE7x4AAKTKId0AJoEBACBd5oQDmAQGAAACOEAAT9ORdxAAAFLEpB3AJDAAABDAAQKYBAYAAAI4RACTwAAAQAAHCGASGAAACOAQAUwCAwAAARwggEngzxRF0bZd1w1jNwxDWxZFzosCABAZEgKYBH63olG0w/gVbVPw6gAAxEMpIYBJ4F/lW44XGShhAAAC2GYAT3/zTn4zV+z7y8G8UgAAEZDJCGCeCP2t6MalNGQwAEBwehkBrP57gVfoFwUDABDA9gJ4mjQrpRhXg4IBAAhgGwGsOYFX1u9vBfPxBwAggPcHsNoENtv0y3EsAICQ1HICWGsCl+MOHnLGAABAkHiSFMAqE3h7/r5BBAMAEMA7A3iajuQvO8EAAEkgK4DVPY/SVKMFhpyBAADgmUxWAGt7GIcZLcEyNACAZ3phAazrGFY5WoNlaAUURXn2PyyCABDAOwNY1TGsarTIA6NB9QfmjpcHwDO1tADWlMBW/cv9SAgYAHxi5AWwmmNYu+8+4igWAkbAAOE4yAvgaTriXwwMCBggciQGsI6vBXbh3xMMCQQMAF7IJAawimNYjvw7jjQwAgYAH/QSA1jDMSwzuoJVaAQMAD6mcZkBLD+BnfUvBkbAAOCFg8wAnqYj/sXAgIABIqYXGsDSj2E59S9P5EDAAOCcTGoAC1+DrsYRAwMCBkiZWmoAyz6G5dy/GBgBA4BbjNwAlvw0rHL0AJMxAgYAh2RyA1jwlxKa0Qs54wMBA4AzesEBLHYN2pN/OQqNgAHA4VQuOYDFHsPqPAmYbWAEDADOOEgO4Gk6qptAMTAgYIA06EUHsMw16HL0SM4YQcAA4IJMdgCLXIM244iBAQEDpE4tO4Cn6SjPv51fAbMIjYABwAXSA1jg4yir0TNMyQhYLcULTVm2TXP6PywHgU0y6QEsbw06G73DrIOA9WGK8qu1pqHBwmCLWnoAT9NR2LTg37/jwEBBwMrCt7y00TM0OBhsID+ApT2Osgog4LFhpCBgRe274DaDoeB1gr14XYH+3rZt2TSn/257fwEsbA06G4PABT8CVhO/Sw85ksGwE28r0G3z6YLRFBstvNq/01HStXkY/3ISGgGjXxQMlvFUvsW5lZ7eQwCLWoOuAgmYLkLA6JfNGbCKjxXo9uJeiWmdB7CkNehsDAbX+ghYOpvusGcvGLbifgW6vT5vr8rgLQE8HcW8YeH8y6U+Apau343LSw97rk1v2PFJonHc/LA+vH5fFOw2gOU8i6MKKGASGAGLpggyNBBwEgJ2cyOm4xXo78s/l6XLABazBm1C+pebgREw+Wt9eQgBKy5gp99E+H3Vh9L07gJ4mo4EMOewAAGfn392Pl992HqNj4AVF7DLFeh27S9TugtgId9JmI2BYXQiYJmUwXZoELDeAjax5O/iCJ62kkv4aHShBcy0gIDVvRyOT0MjYL0FfIhh9/c9raMAnqYjs4SNXeCc8YmAxWHr6z03bQQjYL0F7GwF+t/NK0GOAljCGrQZw8O8gIDxr9XhgYDVFrCzFejG0e+0PYAlPAyrikDA3IqEgMX5N+y98ghYbQG7uglp1wC+tBG8w7/pbwLHEMBMDAgY/9odHwhYbQE7egzWTtWdN/CeAE5/DTqKACaBETD+tWpgBKy2gKP077fzW9PTLpgoSGBAwK6H1doBgoC1FnAW0fHnJQb+sU/AudwZ8/rp5bY4kRcm//m/ZdchYASMgN1c1q7cB0bAWgv4EGf/njXwPv9OR6UzxdB8cX+iKTqWoBGwdgG7WVZa9/ohYK0F3Efr3y9/t50BnPgm8NYAbs4+HWCbg5kYEDD+tXmRioCVFrCJ7fzzh1+utx3AaW8Cb5wqrjybx5QEMAJWK2B79//uGSUIWGkBZxH794vLgx+7BZwLnS/Prj0veDTe2q+AYV5AwGJw92TXNbM1AlZawHVMz9+4buDd/p2OugJ44buxLgMIYASs4SXweBQaASst4HieP7mk0PcH8PS3prniYbkqCwIYAesTcDm6ZHmMIGCdBWx9C/i700SfLJBsvhnbm7+f/vmKAEbAygTs+r76xUMFAess4EOsB6D/o7cawNN01BLAD2vfi5IARsCqBOz8uTaLJ2wErLOA63gPYH0R6Tb8m+yNSMbZ8td/P6IjgBGwIgF3rgW8WKEIWGcBW/bvP05eCqsBnOyNSJWjxa8PBq4IYASsRsA+Hqy+8GVEwCoLOIt8A/hjptvxb6KbwOsCeMidzUkEMAIWPccG2QZGwCoL+BD7BvArvc0Ano7yr9aH7e9ESQAjYBUC9vTFJssGDAJWWcB97BvAb0PFZgCnuQlsPPn3qoEJYAQs/4/3vgiNgFUWcMx3AH+QgsUATnMTuPLl3ysGZkpAwDK48fbdnfnm34bRJruAsyQWoN9S3Zp/U9wENv78e3lvjABGwCLw+M3aSzSKgDUW8CGJBeiX4WIxgKej6ADe7d9LDcyMgIDl/+kBEhgBayzgOv4T0L+vFSwKOMFN4M7ugtfm5TkCGAFLnl+DPY4DAWss4FQWoH9S2BNwepvAN379e3ZmZkJAwCIwo1fuETAF/MWnMI0TWG/cKt4EXh7AtqbNigBGwDr/8CCL0AhYYQEfklmAfuFPawJObW4xFi+1l/7IjvkAASvLm4Bfi4SAFRZwncgJrF8vidpN4MXX6xYHrCGAEbBUOt8Cvjp0ELDCAk4rgL99+8OWgBP7TuDFAWzhAPSlT+DAsETA0v/sQLciIWB9BWzSCuDTL6z0FNaNtZ2mfdMUAYyAJbDlBNbQFq+cBsHP/2ktJzAC1lfAWUInsCwncFoq6WxtNK2cpzoCGAETwOPQFF8Nj2LVQvaAgCngj9TJ3IJkPYGPEi/YHxz/4DtGJQLWF8DN+dnNlNYSGAHrK+A+tQC2l8B/SZklHX5Rx+dZgQBGwOoCeCiu/GOlpQRGwPoKOLkAtpjAAi/Y7xzPVQQwAhY8s27S7yoF3yFgCvj9T0gvgO0lcJ7OJ+Em0AL0J/kTwAhYBMt3bheeqTCVhQRGwOoK+JBeANtL4DtxE4abd+GGAEbAOgP4YfmIKvcPUQSsroDrBAPYWgIfk/kgLFyBvnesfwIYAasK4GLVIO32LlIhYHUFvPwM1vPz8+M7np6eQgWwtQRO5xTWjYUTHhb8TwAjYEUBvPqRNtXOBEbA2gp44WM4nh7P8BwkgK0lsLArdndXQRUBjIDl4OyO+nJfAiNgbQWcLSnfx4u8lHDu+YUxuk5hmXAnsN7/AgQwAtYTwI2rfzpHwBTwG1fPYD0u4anx/sro2gSuAgfw69RAACNgEXQOR5PZc6GMgLUVcG1Bvy/4VvCtqk3g0AH8+isQwAhYTQBvvpo1O7aWEbC2Ar50Buv5cRWeFaxJwMtWoF1/FAlgBKwmgHesJhXbb1ZAwMoK2Fip3yAKvlV0CqsKH8CnaYsARsBaAjh3+gMeEDAF/PrvW9Tvif95VLBRdAorggA+veAMRwQs/c+1c5qi3DpUEbCyAj7YWX1+p2B/RvtDzSmsRSvQ94wWQMBWRtPuSexm41BFwMoKuLarX6/r0JkaAVcxBDAgYCUBnDv+IWvFjYDFFnBvbfU5QASrOYXVEcCAgH0FsI2EuPRUynsETAG/YTt/vUbwrZJTWIYABgRsiRs/l7Jm01BFwLoK2Djxr68INkpOYS15DnTDWAEEbGE5yVbdlFteUQSsq4Az28vPvw3sZdz+qUPAjm9bBASsR8CZt6Wkiu8DpoCvUDvyr6dl6FsVp7AMAQwI2MPfavlKdsMLioB1FXDvYPnZp4FVnMLKCGBAwH6uZu9dD9zLczcC/j97Z7fdNq5D4VKK51oSnbl2zLrXlvwCaZceoOespfd/ldPM9Ex/JolJcQMEQWD1NjVEEvywQVBqSwF/ouPvtv2XfngAV4G/VJ+zW4SaGYAxwbSQ/9jJAGwK+J90kKj8zEbghxbaoE0AmxmAeYIJG0guees2ADelgDtC/cvTDN1AF5YzAWxmACbdT6ku0/epw2kAbkoB/0Gpf1kIDKhBS99hehPAZgZg+iel+N51SPwFA3BTCvhPYv7SE7jT3wZ9/xKSfSbQzAAMqCYN5D947xcMwE0p4E/U/KUnsPo26IgK9NXixMwAnF1NupIP7bLPQQOwUgX8iZy/5AQ+am+DjriEZGFiZgDOrybR589390IDcEsK2DHwl7oX+kF7G7S3FiwzAzBDNelEPrb3I9UA3JIC7uj6n/kIrL0NOlgLlpkBGGJ9iTw2KVINwC0p4I6Fv8QEPuoGsLMWLDMDMJyFfHmsT+GoAbglBfwHD3+37T+EI/Sguw26sxYsMwMwfTJLB7kUxBuAW1LAfzLxl/S90E43gL21YJkZgOljaSD/2RiMGoBbUsCfyBuw/jHCMNZ9DylYC5aZARgrRXnDyCUg3gDckgLm4++20SWYR81t0PePgE8WJGYG4NxYoh/eKIoagBtSwI6Rv4SNWJ1mAHdWgTYzAJM/Jem3U118jdsA3JAC7pgOgKkJrLkN2lsF2swADLFQ7Cqfjw5UA3BDCrjj5C/hMfBR8ecY7h4BDxYjZgbgaB1aJI3togPVANyQAv7jvG0aCPyguA3aKtBmBmCI9QXT2BDLUANwQwr4Ay9/yYrQTm8btLMKtJkBmLqYRB5FfSziDcANKeBHZgCTvY9D703g3irQZgZg6lyWPIrcnBXwBmCNCrjb2I0omPW+jdJbBdrMAEycy87SvTQAa1TAWwGjAZ3eLyIFq0CbGYCJn1HQIxqAm1HAjyUATHMMnP82SqHHwHePgE8WIWYG4Biro4xkAG5FAXdbEftKMkqr0m8SdlaBNjMAE4fS1QBsxq6At0JGArqPq84idG8VaDMDMPEjDuIj3uJcnQJ+LAVgkiL0cdVZhL7Xg3W1ADEzAMdYqCOLNQC3oYC7rZhRBHS36ixCB7uEZGYABpir5AENwG0o4Es5AG8U4YUA8FrTroH8KJaZAVg7gLtKgsgA3IQCPhTkL8nrOCAAFleEdnYEbGYApn1CWUFkAG5BAbutqBGE9HHVWITu7RKSmQEYYbUc4xiAW1DAl7IAJujDelApgb0dAZsZgElrScKOcQzADSjgbitsX/EBtmqUwMGOgM0MwKS1pKsB2IxZAV9KAxjfhwUCsLA+LLuEZGYApn1AYTm3AVi/Aj4U5y9BHxYIwM911M3sCNjMAIxIZaWhzQCsXwFvAgyedx5XfUXozo6AzQzApKmstCqSAVi9An6UAGC4BH4AAfiz+GC0I2AzAzAqlZWWxBqAtStgt4kwdFh3qz4J7O0WsJkBmPL5xMWQAVi7An6UAWD0VSRUF5YkCRzsCNjMAEwZSVcDsBmrAhYigPESeNUnge0I2MwATBpJ4mLIAKxcAV+kABgtgT+qk8D3mqDbCIBxlDId44u54sMxnl9sgo4LPYDHv22QFUny2igMwLoVcLdtSiXwUZ0E7to+Av5GmuX/zxrOT2PBaRmn849xf/GlVArwayl1gY0JKYDH6We3w5l/Jvt6btIbgHUr4IscAIMl8MOqTQL37b6G43fU/L3onwYprtz4KfK6HwsmF6AD8Hh+1Wve0fP1nOIYgFUrYEECGC2BYW3QYiSwb7UHa3yzZ2bh1p6v8uP7psi5TNz05pAMxEvtROH1jTWZqugUhwPAIs5SSpfXXoxfAV8kARgrgd2qTQL7Nnuwxvcfm3PnHt/vQ2dLB94BGSYTIAHw+14zJjCuolMcWgD/fKxzW85i+itYK0nn8COs7x8nQRWw2za9EnjVJoFDiz1Yd5j3F4K5QvW+KwvLShnvuZG9j1IAeBIzkV1FRSRCAI/Tq2cpbdE3pKb0UAX8KAvAWAm8apPADfZgRTCPS3k6H+MKg46LGZNclOEBHDWTPPnL280UAotIVACWchpQdHeZdqxDpAIWJoDBEvioTAK79nqwpluk0WNvjHXlNkpwJBNlcADHziSLCPYVvcuVBsBiTgMk4vf9+EEq4EdpAIa+EfqoTAK71nqw4uQvi3iJlL8MtYhYkuURGAzghJnk2PtrKiKRADjiNEA9gsedqSBQAYsTwNiPIj2suiRw31gP1nRLMkrtlJQKUFZSUxKB4bfVE5Y3/g3UAHYyBu+uOxJzWAIAjxIKOaWTe793IQIV8EEegJESuFt1SeC+rR4sf0s0up17SnWFavdKSwSGyNVDDWCXOHjUBHY15bBwAEfncMvwQa25/Tk9UAFvm2oJ7JAAXqUTSdu3CEMy9Mh2jHT+EunxRCH+C1DKATh9+Ih3/r6mEEIDOGUN7Z4HNz5Nr/zLku2v/Yd7C+WxS3ImVcCdRAB/Ba5dKICfhQNYVxO028Ffqp3b73KFYD5czngUA/AkZR7vPpzIEAIDeGJJIz1+fJELxedEMU4BXyQCeJMK4PISODTUBH3baQPfds1OYJdVEygF4ElOJnUvkE4SIwELYM+ziGUD2O+LILQCFimAoTeRPq6q2rDaaYJ2t5sYAvvdroAJvKsoMJcGcCcnk7obSIPEWIACOOSkcFoAnNlQ6VAKWKYARr6M47hqasNy7TRB3zIMnIj4DFewBA55PpQBsJOTSd33SWQsIAG8ZwntIrBkAKdG9BK1fNIVsNuEGi7ysAAuLYFdK03Q7pZl0GnyWa7MAjw5lQRwxlTSdUR1VXVR4AC8s69igUFOBIB97kpEKeCDVADjbiI9rJokcNdIE/TOfYKEwD7TlVmAJ0M5AGdN5cyLtNvtqhvAuydjQVFOAoB99kpEKeBNrEkF8CoxEvU1QefyF0jgKdsV1G2kLhtkJQDsRYxdrFcnkeEAA/D+uFpAmBMA4Ck/FwQp4E4ugGGB4MAAfjYA05vPhh6sGuDyXQHt6i7fhQIA9lISqTi3BpHxgAKw5wwoqQB2gCgGKeCLXADD2rDQAP4smEwy62clRCcsG0HwF7Sth3wX+AHcSUmkorZyqYc4IADzNjMIBTCkJRCjgN226ZfAaACXbcPyLdxCwkAPQuDss+icexxQKflUBMBOSiIV6ZfQGhIGwBPvTAgFcIDkgpD07SAZwF9Ri3fVJIFDA7eQQPyVQD3gxp4tJYcSAEaM38C4xoTWkCAAzo+rEyB2SgPYY6IYooAvLShgOICLtmGFBm4hoaAHIPCEciW7mchBcgBuAEPGj6Is3NVVQ0IA2HHnQiIB7EDPj1ipnWT+4l7F8REN4JJBetMPYBh/AV8sx7mSq+M8xANmAAs6S4gimtgaEgLAgTulFQlgVC6I2IAfmxDA6DdxlK1Bl+hXqbMAjagoBqArS/FRmdkB7GUkLwmeCQ0KAIA9ey4kEcAetaEgYrwNAYwH8CqVTipuISH5m1mE9lBf5uKjMjADuBMxdClTu6gFMGouTlUD2ME2FED+1rUhgAkA/GwArqEAnTskDutKjo5DyRdeAIup30e7NmsFsCswFQIBHGAbSsjP3y5tCGD4q7BK1qAdZcFVXQE6c0wC2JWl+KgMrAD2EoYuDcBXrQD2BVJaeQDucQlIyFbArhEBTADgcleBO+0ARkMvQzx5uCtzaVeWwAhgaC51wi4zV1cTdDaAuxIprTgAO2AQ5yvgQyMCmALAz7ICUfr2URJ6uwPe4V3ZeyJN4AoDgKFzufAAeNAJYFdkFYsDsAcGSr4CvjQigD90eAB/kQngoXb+OiayFMoF9m4+vkYAg+cSm1x2dTVB5wK4TDehNABDL8X53DTRtSKA8e+iLFiDVg5gEtIs0C26QDLQ3WoEMHouOeJo0QngQt2E0gDskY/vcxfpoRUBTALgZ5GEqh3ARKXW6x5fwk1MMhBqBLCkbrroJ5t1ArhQN6EwAMNW5AxRwJdWBDAJgL+IBHDtApiINHuOXnsizO3ILXkEMBrAQUTukhhHV5UAxi+ga40A9tD9JFcBu2YEMAmAS9WgVQOYjDQzKtKLVFJDjQB2InKX1DHVCeBSRymyAOyw+UeuAj40I4BpAPwsED2SjvMAACAASURBVMC1v4kycMKlwGH0X5b8UQYmAQwGMMEAIpc3S6eXEAD3pVaxLAAjVyRAAV+aEcAEn0Mq9y6OQNBjK3uTKSKBHS/oCuUChACW1M6eAOBBIYBdsVUsCsDoW+m5CrgdAUwD4EI1aM0AvsmhHiX0nuTkAnQA9hLSqPRB1QhgmrU81wZgD376Pk8Bdw0JYBoAP8uDVN0AJi21zoKgN4jJBcgA7ESkUen+fdAHYFduFUsCsEM/fZ+ngB8bEsA0AP6sFsCEW/6pkACGfEm8iARmE8BQABMN4EwM4EUhgKnW8lwXgHv0RpapgFsSwDQAXuUB+CoewNdCAjgx7AOtLyIFMBLAVFlD3scl7y+2WSGAA+N6EQxg8DAsmQq4a0kAEwH4ZABGApgYeil7d0+MuoR54hPASAD3AkZuzwwrBDDdWn6qCcDw9H7IU8CHlgTwh496atCVA3guJYCTBoc4F0ipdPoqARwEjNweLF31AZhwLdcE4IQ4CiEsEdtJngK+tCSAiRRwiRq0233CKh3A9KTJrU8yHYWXEsBAADtWJ4FLXB+A49fych5f7LzgVrEcAMeuyKfx+3/lxunOcGVtMq4pAUykgEtcRFILYAbSnAQ8f+oe1FUJYC9g5HZN8UkdgCOnYhl/zL4bI1XzUg+Afdwg/PpHseOwQwEfmhLAVAr42QAMW6AMpdYFMsa8Qi7UCGAnYeR2LfFBG4DjpuLp9+d2E2Qu5AB4B373ITjyMR6bEsBUCvizNAAP9QL4Jod6HMeuxd6izwHgntJLTJU4NALgmLU8v/bULgBWsRgAR8TRGy1lE2h/+83aEsBUCng1AKMOYvubHOqx0E5OLoAHMKlsXwzACSs6YkDHN/50zE9pxQDY738SRxHXXVsCmEoBF7iIpBXAQQ71eFTnNX+2pQLYsbuJ2scFf01sH4Dvr+V3budFiOBrHQB2GaMQVwtITA8PbQlgMgX8bADGMJCJNFEJE08uMO/fdaUDOG35PI3j6MZxCtCRMwDHTcWc9+dLHQDu85ZUyN7ffrdLWwKYTAF/MQBjAJz2i8vybdcexpRdOz70E3OB5TtAxjOBkAtVAjiFvj/95jhB97g9+/iiDMAuNyB83iqWAuCQuS3Eb0+RK6gxAUymgPkvIlUP4CH72PXXbsW0PsUB/PA/AySeILHbUGIucP6WlXz7I5eeDEAB7PaN3stfeljqsm9ktQH4nvK7ZkfDXAOAXXYkxm8yVR8Bkx2pUilg/kNgnQBOOHb992lNyhnNFRlr/26cdAkIXrDzcP61l2bHFUYUgP3umYxr/EHUoB1hdVsQgEP+QPqcVSwEwD5btEbvMXEp3KExAUyngNkvInX/Y+8MstzGcTBsklV7lensVWG8l+wLZPJygLTvf5jpvE4mmY4tASB+EqSpl2VKlkAQH34AkroEMP0H745svilST67fuNnAJAw2RJi91QJwVgWAZL8BYNoFO41EJmZ4sREAK3gTOSy03ALGyUmYAi7eBO5TAZPLtlNmgqr0ypyHqcCB8eDgqpcL3L0WF6sAmHjV7xkViHkAmHTBQaNdubO3VvsAVomZxCIdzajPJoBxCrh4E7hLAFMr0BufXzlqUS+jfqqdLMfcaznWAHDMXcqUv4jScLr0BeCkUkdwcuLYAHDMbEqxdmPDLWBgPxWmgIs3gZsH8Cz/vc3Pnx11MlSNRJeqxyedXGDV0NB6AE5SL2CcYQCYwjKt19bK2142AJzyywBkxyad7/XZBDBQAX8ePeB8AKvw6qhylpjLPAaBc58hIUDDFQewy06lCOabBoAJLhS0qghReiITAHZKnkTbS+22gJFaEqeASzeBe1TA/potmugEXhRU526aSyRwiVygNICDQh/AZS6iFGedAThphQon3QwmABy0mhlRIzSYbQEjBTBQAX8dAM4GcMwXTfTzXPJ5dcldJtpyJQX+sgisAuCocM27KdkFBOC5JwA7vTk2L/RiEwBOan6kpID90wlgoAIuPYXVPIAXmV+vatc9Yc/A4d6KPQOrNK8EYMJVX6b8lZwGgHfXX0357azHYhvATm+c3qsk5zZbwFABjFTAhZvAvj8AU0hDTFWTLAPgnYBm5GPuXVFquRSW0VdTA8C+TP4yDwALG7CyQOFkXmwBwF5xmp6wlQhn+fB0AhipgAu/iqNDBRzUoEdi+Qr8e64RhZUznlnID0lrADgq2S/qLMIzA1jVfDKaWwBwVAyXLi+n/nGcn04AIxXw1wHgzB5wkvyRvEh0zVOdq95m3VTjmX8uaQNrADhpRCjCNQ8A73mjV7WerJBrAcCqWVzMiS4/Tfl8Avhw+tpLE7g/BewUoUe69Dnrr+km9lk35hXNEosB2KnlUhHaBA7Q/WMCwFF3iDxI/NAAgJ2qDzmF/BI0g3U7H7+9v3/8eDYogKEK+PMAcBaACaRRLRJt7X810ZnfMVLNBYoBOKglDU5vHejW7QnASbd84CRebADAQbeNEfNjFWQG6/eHRN4+WhPAh++fju2jCdwfgKMq9AhV5Au4xcNJBqYMZjICiC8F4KiXNERkE7h/ADvt5CUIFtUAgKNusHT5AUK/Bfzxj1s52hLAP2z39mkA2F4PWBd6lJbyJIf3pBWz9mIhAd66RtEBcLmkYQB4255e23QSohsAsFZYoe6k8gC+3b35myUB/MuJTq1PYWm939WMAtbrGpLV3iy+71UlWlBOGHTN4ssA2GkmMMgmcP8AjurFA8EZ6wPYacfKkKsWHLD4/H+/czYmgH9c1qe2p7C6A3DQht6+2lvFvOQu9T73xEugXhfQALDXXMsIbAL3D+Cknro4LS8uCeCgXULJHs/3BeQvUwTPRT35rekprO4AHLWht0+9i7Tsy48cSXp35esCGgCOmmvpgU3g7gHsAIbjt1PrA/jhNb9jguN+Xvxa7vHdoz0BjBDBhgC86PxIyR6wPvTETA/qucA+9xZhLsDuYKUSAE6qawlsAncPYA9I0j077tQHsH4Lw2W6peZ7sP5SUdtzcWc+NTyF1TqAF2DXkEq9WXbbksCRZOcMwlvIksDZAHa6axlxTeDuARwRiQt7Z1QHsFMewdrd0vvnPZfjL43AtwrefGp3CqszAEO+eyOkHiAXkD43KPyzjN5VAQCvKsxR8fXuAZwQZmNTvTqAA8AMMW9jluQvicBzDXc+NTuFBWyM1QBw1FZ6FKqvIkRd9NfrYehIPCvqLGo2gINuAuNwvt49gCGFA8c9a3UAR4AZXFaQ8IX6v+Tfu9XxZ00CF00hOgNw0lZ6JLUnKvvOEFsuejeQK4GzARyVExhAPvQkAHYQqz3eraymTkEAJ0SgTDk705fl737Pea7k0KdGp7BSXwDWV3qUG5gkfwTIlx8tmerjPNRcJx/ASXctj/odgWcBMKL0KjhtdQBDzBBy0kK1GSyyr54tCuC/A2OjU1h9AVh5bId62kUAqAVjzItEjE/acUMFwE73oiHdiScBMKL0urXCq00AO4gZXE6arjWDxfD+s0UBrEngLyUvO8LKcjUAHABKj3AHK7vgKd+ze2pWC9r5NWgsgJlruf8V40Xfw7sBcAIFiKQxS1gOwAEjVFLG1iw4gEWpet8quvRLk2PQmTN4xgAcQSIn8AnmQLmABOxmCvMsAAfFtdznb1YU7RzADvWYROClp7UBHDFmiBkRuGwDeLfsPdf06VOLY9B9AThdQbfDl50Bpbci+8SgwrwHA1jRNd8orjQAzAZw7g06XnpVG8AJYwYnV8C+eAF6swh9q+rTrsUx6AgbTKkBYJjGiaqsyYr2fGkNEuMODGC98YQjyZUmdffoBcAB1qJKrPy0NoBROkUeJ3zxAvTmr851ndo3OAYdegKwg0VYz65tJ1i9k10OD6DCfMQCWO2iif43q3t4LwCOsCFN3pkrA9ihzBDFCljnTdDsCzYpgPWK0P+pvhEbBTDwm69sEVl85PbxXUZQXhKgAHZKa0lo/2Z38kLfAE6w8OBZ4KkMYA/YzHsbSVoMxn6+15kUwGpF6C/VN6Kaa5UFcICpzp17WLn12ZzQxT41Sow7KIC9zkWT+ZvjHwG5feoDGDgiwjp1ZQAHVB7ixAr4XHwC65/jg0kBrCaBS5bNYY9mVABwxGUTXHGN/PgdV1zDhF9CAjioXLRn+NIAMO+lqiswNkwGARxRnfCD2CfrCOAHP2zB3Zsbg+4KwAk30s1VewFo18g7N06MRySAo8ZFHzm+NCnjrBcAe2B0CJxzVwZwguUhUaiAXSUBfLf5fLPg1y+tARj4hvryAEbeC1PtIafLmerac4e2lC4ECWCI583aGOkEwLDS60b8sQhgXJ8uCB3d1xLA9ySwDW9vbQy6JwA7pJpnNsuBYnznPi+8KweELx0A5180vf2b6yF9AzjiWsAPl3m1B2CHy0OkH7t4rSWA73SBbzYc+6W155Bg8qgMgOccQaZHvYVl1ty8hkd3YGc8VQLwkr9iqssSkB0cqwDWyc4TI/LUBbDH5SFOmKq/VhPAf1a/rWSbrT2HdAVKtcIADtBbYcVuBx0u59W3gWI84ADscpOpN74zadfiOwEwtDwWGGtRF8ABaIYkU0DnCs8AP5DANyue/dLYc0gdAThCq+mRUypwSDHOlPpAMe5xAPaZbnkUONOkbIe+AawjeTxjLeoCOAIXOco8PR/A3+QLZ1MA6zwLXPB6ExQVdgC8YELWg43ioWkNT18DO+MOB+CQlzXEXGcaAN5b5EknXjLWwiSAZ9xy7Crggp8B3qH/zY5rn9oCMLBD+L+fSJdrzj9qlMemEizZGbCjbYnBVGg1PNkEMHf8KheYDlmkrQ1gYO9zY9cu5gCcgHmIE+XqrtoI1h8SeLbj2q6t55DiFaobkekhC8C4PXJvG2LFOKvYDhXjEQbgmJE1uKvsWJV9ow8AB+zNxVYAjMxDnEgB+2ojWP/G/82Sb7f1PSTgQyqFAezA89zpqoMPhZyZI7AD0iyhCoB3DPgm5O/1fQCYvsYLdnev1gCMXeMkwbuvN4L1/fhgUgCrjGF9HgBWBjDydTV3wlHCTrZxcg3oaJqHAVhuwKOUv5P2evQBYGTv87ELXZ4LwFGSIGc/hfRX3srZFMAaNeiCAMa9J6lIlXwi3smMiln3AYy2KaOsDK2GuxoAvmT0VDbOOqmb4XIwezAAjOx98mxXFcDYQbsgyTVfa1agD7/NgM22nPvU0oPArsBzSEAAUwE5gS21Sv8roBxeshqOArATGlA4fgX6PkYXAEbfG/38VQEcoIWAIEnhPlQcwfr992/GnPulIwBPBuxJBHAEJxJaAF7AJvnXmmHzq1gBwIvYmwHt32cFsJ66T5nuUxfAEzYMb/7RuWoF+lcNerbm3U09hwR6NFLxSPkAvqAtdaFzYIbFTzaA881SA8CzsJ+ycbwVU3HNARje345tADhCl1jUxDjXrUD/rEHfzHn3qZ83cSwGzJloBEnoYTK6xEZXwxn9bnA1PIAA7CUGrDB+xVZxvQBYLzDQh7wMAlitECBJ4arOQP+qQZsTwAo16II7N5ofg77mA3iBW2oiAxjeOFgKVsMdCMBBgMsa41dsFdccgOFv+QptADhh42Pi891VrkD/qEHbE8AKc9BmAGxhkJOYH8Ar6UEFwBe0TboH8IMrqTN+xVVxzQE4oHMLOuGrAhgsUAQVbl+7Av1PCmDRyT81BOBgfQzaKQB4AkaKO78Q4TUFcr3dg80CAnDkumSt8avNy10OVg9DAKY3mQ0CWG2FBRVuX+890D+Ps0kBrFCD/mwGwPWraEQAO/hd0EerIryrTkY8uh2digP4blCq1/7dsnLHAIZXuIwBGN0KD8UVsAY5X20K4PwadEEAO+tj0J5GM4fX8WQ7pUYADL0QFIBXRf4qtH+3rGz3VVh0AMcB4I3wMmOj3GWHfnVbwN9zgJtN/+7nQeDFaKxgAfiCjBR37JTgGQ25y4x+OAsE4MQCsHT8ap2wPtovgDVnQ8jzRwYBrFYg9Pw857V2C/jvw6YAzn8QqSCAD/gRlSIA9vibIAtbfM2T/L16dDs6FAfwHymhePzq/QAOn3bfRUkHcIKHhdgCgD0YwI7vQB+qt4APh49G/fulIQAn41NYxKhdAMBkmA0A5wKYUZOpO361fQ0DwPJt1QSA0R609Sfn6i1gu0duE/iLEcBZmMJKtIsLjJhdE8AFGgci1a6eCRQCcOXxq+4BjO9MhRYADJ9F4yvgAeCNo6FXYQ0AaxTDVyIdlaqS5JlvNIBdcQDPKvy96Pq12WcIBoCRAL6gPQgH4G99A/jUDoCD8SksotYL+FFuQwAmV7nRE+51AezE41dlnHS2Gp9yAax5Y+T26vMBePP8BmawBoChRUQTU1jUYmvEA9gTweoKmFMDwBN0eXIATPzOsIHxq+1Cw2I1Pg0AqwB4RXsQDsB98zd7Cqtg7WpviKWyJanUi/gyujME4GQEwIeKABaPX72pe2nsFcDox284P1ETwBEN4MhVwG60gLes0w6ADwWHVYB1X0MA9gPAJQBspP27dWdmHwQeAG4CwNcBYOnREIB36niVmwWxDQBfiQBeCphl5l8ywHvQALbE30dpotkHgQeAm1fAfsxgbR2fmnkX5d4YdOUsPhJpFvFV9AFgQwCWtn8x7hwaew4pF8Cq1UJq4m8PwAs6zsEAPB86P07tAHhnDLpyFn+1A+DDALAVANsZv9pe8sloeLIE4MMAcHkF3D2AX9oBsLc8hUX+BFFqA8Azcr/yAHzBXggSwOLxq6mwm1qNcwPAT66Ae+fvwbcD4L1oVjWIqLxxojCACzySvPkbS+8ANtX+3XSNxWh4IgPYDwBvhJcFvCJbW/R1AHgTHO0AeG8MerEXKe6EgVSgiN4IgIkKWKcbWgHAUdr+nYrvIatj0A0AeBkA3rTz6xiC3jza+RrD3jxL1SZwHABGKeBGAfwm5e97hT00ADwAbFEB/3Xo/mgIwHsRzSqALwPAT6iArxb5+/DW+gSwbk4+StASBfzhv+ydTXbcuA6Fi2R6zjScefkwmUulDXRyvIBMvP+tvOk73SkRIHBJUMUa2xJ/8eECILVOIZ3+3uYBcHKcBGafKOkBYGaeOS4F7A/Aecweyj6tkysAlwXgBgW8AHwZANfKoAfG0QI7Ob0U8FLAQ8qvzufj7tM6rRD09Ar4xzqFdPr7Ms0HgavmbmASOC4ALwWs/+3D9tDm0zqtEPT0CngBGAngj65tHRy+azHv/2nWJADOUAu6FPCA9O9pi51WYS0F7A3A1FUB59vlfzMBuFaFNc6N9wXglQOeEsBfe6xUj0cIJlHAKwd8a7gJ68c6BnzuEk8E4FoV1jg3nl+dvULQSwGPSf+er7+lgJcC9qeAF4BdAbhWhTXMigR+anoBeCnggfx92jefwb6VA/YG4LQU8OsCuGrv7q7sxB933gLwUsAjgzdpqiqspYCnADBKAb/ARVjamzgcRXoHxqCJn5kuHQT8ygHPBuD3bks1TlWFtXLA0yvgdRPlhQBcq8IaFYMWyPIeAF4KeDIAd4z/hqmqsJYCXgp4AdgPgJMjS8a2w9krgEd/jpCpgCf9GpK/9O/54sgejdMC8FLAC8Bnv77btmrwdkdm4s9GgOYAsNWWJb0CvjqA9757qDirn5gdwCsEfT7O61sMld/3iQBcTQKPiUETvwi6B4DDAvBEAH53slhdJoEXgF9aAS8AewNwcRmDlohywjeeS7NJAHxgV85gAPfm79NwjcskMBvAYQH45N2GAKalgI1/bzMBuFqFNcKPPzfD25QA3jtMWJZHzS8H4P4OY5wpCbwAPAWAlwJ+FQBXr+I43FiJJxvUEYBDBwCXBWA35VeVNt8XgFsGbgYAG8qSrgr49wKwMwDXLd4AM0ISjdMBwNERgA8DAGdoQzQAvun4Oybt6u0QPRLAGW97FoCXAn4dANeTwP3NSBBJcsI7D4k5PPjKpwVgV+nf8955TAJPAOC8ALwU8OsAuJoE7h/ViyKHIOErn2YEcAEDOPgDcB604clbgxaAlwJeCngSANeTwJsbgzYKwGQA4ANqtGQAvkMbogJwacbviPRvZQvd/RknTwCOC8BPV/wC8KsAuJ4E7h5Jk+WkO5QecwGMj/vyGU9gv8QbgMfx9/lQOEwCswF8w/sUUwA4oW1iWQr4pQHMMHmdmxRlrRkM4K0vgKMXAEdfAB7KOk8nCMAA3uBteTUAH0sBvzaAyZtxI9mxqIgX78UCwHek0ZIBeIc2RAVgauPv+9AdP1ESeAIA9wgDByWADV2ro6cCfom7oL/PBeB6ErizIy/0BjokXtkZ8gKWneeAenBJfTkADwYduSmfMARwgTvjtADcct56Abjy+5gLwIy7D7rakWgJ4AwfoXvPuK9A2CawX0J+ADww/VtZsv4OIi0ACwEcwS5fEC8czecIPxeA3QGYkXbrakdIVoM1GsC5Z9z3fLJ2th/jF8BpsvRvZYG4i0HzAUyDAPzwBeAwBMBLAQ8DsJc9OcyOiJsCT7wmEwA/4KPDB7DBfBYvAH53sOX9HOFDA9gyHcXW2A4BfLcahLgU8KsDOLgSGVEsxuHBcz6A0XHf87na2uLm1p6ACsBRyt+vHrY8TXMQyROAj4kBvGEn5FgAfh0Ac24fyuNt2dNdV9CeA7GxmtBjaATgDdkQFYClX2PwEeNNztvXAuCE7lAYCGBBZncIgJcCVqyr6QBMjiRwzQBvsuabxH0LG8DouO854e9twWrrQEVHAA8vv6q2+u7MOvkHMHuHDwXwDja+KAB7cwgXgGtWvbMnT/J28AUqIELwaBSoiOHJja02XjMqAIsug/YT4J2giVIAR7RHEQcCWOBdgKvBS18F7M0hXABmqo730ZbsOVDRcd/AZ0BA46Lw+1qgfgk5APC7n01PTs7QGwIYnfx8tm/vUwD4ATZ4C8DNvy/TAZh1/18fCRwbNI8gLGvfpr1VLAP8k2ax7AnAhc1fT9G0NEsdtBrAdpKelMvn0eXd6GI0ua34tr5HCATwL1/mo7fcqEWgNyUgzdu0NQPSPlYhaPYdYzcMAExM/HpJ/9YmxlkMWg1guzsBytQAztiFswD8SgAOXgRHaGkEOu5bDiP9ph/BKFDYCZmPDqMB7Iu/wlNZUwD4dmCln+D59gDmw18QKTfc0TAF/AJfY9B9i+HnkDYXJxK4an21stA87Jvb1bL1+OwdAwMRBuDE4q+787U0SQxaAOCCdSjCSAALnKUIndYkN1t/rauwLgdg8iGBQ5vdxbY6SB6fsNQoAr5D/ZIEAzDrJo53d7s+YU/CjQAwYcugBdrPPg2rD7Bhv3T6QAH4BQ4Cf0wI4OBDdVT9gE2NJVvW/McIJGwV1mEG4IybKR2AgwtX0HIHuWqtHsAbtCV9LuUKbgBcOivgBWCXAOYd/sjjjNhpCwjqNpCEqRE6gOcDdFfQ2nK9oAHsLf1bG5F+4fJUHxkBgBO2OzQJgLG58AZfPX6uc0hnczslgMmDBK424tHyf1DfZFch0laMZ0lgQDeXAQfg2+hVaL94uzkMjLERALihPshA+238sW0f12gAYJNZDQ1WawH4fG51AP7HXQStmyWJrR5AQjY6yFoEZYfM0wD6JREI4DJb+rc6JFu/JlQXuwDAAWsFBE6qOYCTpGsFmAuP3RXw76sD+MuUAObFoLH1JPVS7HsLuZXmL8keXpDjJ5scoF9CQADTlPw9c9R6lWEVhotnAOA7dLxyDwCTZFMgc+GpuwK+fBn025wA5h2/RPryjPMnNiLVcmDusj/XiYco6yfQLylAACdoFH+I/9gnBh04rxIA+AY1AkkP4Lv5XGVBS6EfWjvz2cIC8Nnvuw7AowwMLwYNrH/RfJW4CdsmoYEsA/AG2a1PRgfnl4gLrO0AvLvd+Gl0o4nzKgmAC7I3JNit5gAWeUoRWIXVYrR0AL58GfTHnABm3sG7Y81Ho/4uONEUhXBH4qMIRwfml0QkgMPALAjKg8z93p/tAExA8twkOyQZu7NBNE/AXHhoWuafqwrrZEiVAM6jGs6LQcNMSdS8m3DUIyEOAk6NB+nowPwSGgdg3QKE4nuwbifWqyQATkAbEAwAvJsbGxGA70irhwPw72sD+MusAOZ+Cb2/9ap7hQnXZGlAIBwwNZ6kZIL5JQcSwDfcCAYoCWno0eXAw6MEwBGYBBY92xrASebd4bwqalLAqu8RXv026LdZAcz9Dtx7b+PFWPARJpqCOCiOC+EXqZuB8ksCFsC4eAZBi7jiUAlMvFdJAByAnSGJf5WM0xEksxQEy4aUps35Y1Vh4QA8ruWJKYFzZ9vFeHGAUY9MWXMgbu953skI0pIJC2BcPKNg07HHQAkcmBtUAuAbMApmUQb10KwDPYCR18wDFfDnOI3X4/cxLYC5MWiACeO9uj2ADYuMZzGd2hVYEotxlF9SsACGxTMCuIqLBh3g+9e7dzMAF5gFkN0AZVyHHIRrK6GSwLHNZH1bVVjP51bJ318D284swwKE00j7WgJRL8iz0hE1eEXeR4xfEg4sgGHxDAJHg2Nft/XpmGUrABPMm0gi5Rdtx1QKYFgontoUsBLAl04Ca2uwfg5se+RKYGsX6m+18CaQzW54bjgwAq7luRi/JIEBfGutxWOGM3AKoH/txB8HeLcCcDKfgtqCkCWjs/UClgFYHYovbc6x7nNI104Cv00MYG4ZlrU3z4x9a3yHDLCoz5RA62FmZZSgAZU7ZpmoAVwwkxnhYpRGSeDAfpUIwBHWF9nuCLZ7iaRzBBqG1ttLlQC+dBL4Y2YAc8uwbEtKAo/7u4bhG2ZA7g2kfBibrLPhgfgl4UADGBTPKIblqw1+IFICE3uERAAOqIx2tJGgm/VWyl1D8alVbnyuJPAz46QF8D9DW88FsGkejZl6zho8PZQmW9KmJmqr8wNby4S+Q+ZLDeBaX9WrG5YG7n584MmAZRsA31D7n4RTa9qMIJ4iQGip9wAAH+xJREFUUCieGg2WFsAXTgJ/mRrA7DIsSxPGfOdD95S78U5tqBjRDV1p6mABoOyAAzhAXBgCVjGwliGu+qvwXyUDMIGcCekuNwVgEgMYFIpv3ZnKy6CvfB20NgU87ipooQQ2M2F/2xA/IahHTQ9tCdGqBbDwBKNiFiMewDfEZIYeajSaT3wjUbINgBMmBh2lM1ssYyEkniFMKD42643PFYMGRaAHXoTFUkzm1iQavQ5Bveozt7ZB3G2NxtmGTW3/potY6AFMgLVHXdQoqH5bvE53GwBHUx+oPr+b0C5l4znKPUPx1Byb+lwxaFAEejSA09GXwGzJ/dA+aAegJtv+H6B71f+7A2ZMD2BAPCP0iQcTpAK+4Z3ZBMABs/vFT7Wsgmr5ahUkFN9u75RXYV33IJI6Av0xugdHVwLzQ97VnVYGoKbVi9mN7frJ+Jg3hXoAuBYXaajCpz7x4NDv9MD5YMmCyvIvbW/mLT7TfdQpmJSlW3pDjEJVAf9YMeg//z6mB3DqSeBg+Crqj5q9uVvZfKByayey/ZTpAWzvN4ReGdnS7fRAZUayCYAJEU4n8fBYliGXht0QAMNA7Qr4mxbAv1cE2uExYCET1Q694F11w1VPJt+tW7c1hxF2y7166jBbq3HqA+BivfKoV1Fy6lO72CwOkw351Fdyy3ZUtCvjD4clgNuHQfPhcO1NHFetg36bH8CCk0haFSFh/d3gaQ/rgciAf23s226vndvnzADA1n5D6HYsKAB3jMzxzBYADgAxT/JtHuwcmtQ0O8V8GJLCWMXPFYP+0yr5uACARRIY4we3sbMYUFzWPEUcX+YM1Lv2PBVl2xTqBOBqPEMogUu3jCzsWnLxMt0tAHwDbP2GHWV4DqjY+tT2n0RkKGA9gC9ZhqWPQH/8M74XMgncfMHe35KXcLZZsvUW6tDbNfCWOANR0zOybEo4OgHYOIofO9ZEgW5FbZjebAFgMt/5scUXNONfaNtH0TqpEDRusfomjmveB/1dD2AHkQGhBG7ch/aR7mDa1KRiaLF0Bhgde4Do3TZrFgA2jeKHjjVR1ck3pT6JfRQpgFOjSGsZn71BNUtHM7UtqnCYuQC8BX7+33oA/14RaIfHgFskcItFYX5/QWYnLQPmQfcwsuqT/mGWfkk4ugHYNIpvr+I0vpvhdRxRvkKlAA7WBWVtDySrRpTGPV1sQ/FBt0h+rBj0f39vFwGwVALLl+BXyPMZoHoYQu+hCxqzLYf2WYZqvPQDcDB0Ychw6Vrsn73Xm3YDAN+s+0FNqo+Q1Xi6VA7kltsDDeDrlWFZCOAPFz0hMYH3jHw+E5vpMDPanBZuSjXOtP0sd0g5LMwYBh39AGwYzwjdAsLccTLS3fU4UjYAMNl6L6FtcyajQDi1LqloOwxFZ/O+fS4J/O+fQQnWxy8froQYwMfjK0z+srViMHtWUPOTzPyKonUrgpVfwl4WJgA2i2eErlXJvIGyoT61OGZiACfbsaM2l9aqCKp5YoLpMKSWqfu/n/4g8PUksIUA/umjK3IJzJYSwuyvyMctam5KSKNW46yNy5qKTT0s75YzZwLgaOU3FBv3znb/5C5vebcA8P/YO4PlxnEcDJNy5U5JnbslTe6W/ALdU3mBPeRBZi9+/U3SU71dnTgigR8EaANTNXMahwQBfAAISRG6DeqvgZ5H7ujnsgDVwH5pQffiJbBAAfz83Ug3/UyRad8OIwXtJ1xameUteaRZARrcx94A2NKIyUvyjw4C4ABKYZYqMCxOHvh/dKT9kWIAf6XB8nmyhZrSYlS50I8F2QnIODt5AN9YCfx8QwAmlcCvMic8fgtu6SLk9zJXeQRU47sEzuPvhlBLwpkEBsAjJIVBTubh4jzg7nkgpiflAD4A2wcdOZta+Ak676OlwE5A5Bvli5fAAgWwiSFoegn8fhd8bQuxX2g/uSLjXkbsy1wmpBrfAUjmy0r2IhBi1Lwkd8IA+ABQIKKZQRHc4BvHNBIGwPEMQ0+kp7QjIoEaOU6Ay+FGfnx58RJYoAA2A2BqCfyTwR8HsnoqfctcfOT/ZO5N58oJNZkAGUAaGvk/czhXB3DkKzDzMAUeBj4LE3ggm2g5gANOdyMdOQdAGc6bjhvPgCXkWvYe0p8gBL4d/n7DANjMfuKZJfPU9++1cHz977AsjJ9aBVZ9PfZlTxrtetzC3l9uOrEF8WRgPNcHcO4fva7AHpTACCWwDAIPdBMlAHhEKa9jOHoHqD95w3EdSg1ZoWHnNx4hAP7PrfA3Yvj7t50djWcjUhSlskk/8WrOjMns7JrxShzOHzrevwNjaqV0ch0E4ANTgQMqgREqgekEHhnbIgC443lCZiJ4ov/PRwD/M6INqE4YEUb58OJNaHwB/MPOjqIR/pbdz+V3Sj8LfgWgWZEKnFipAHKA+dPHuXtAzkQBcGQpMH/VJwn/GUFHR8+HjjAAB5CHjixd8FOohXkg45mfBGSb9V4ygQHwjcxhdRj+Pn83tCcjJXASSxv+hE0csMsqUOA20fGbEwAL1PIhMSE8uA0CcIkGp0RWoMxHCQM9dcDwdws4AI+QPYw8Mx65ScDI9esOEakyfXEvp4gYAN9GExrUgLYFYBslcOmAahEtfhvZLpzRzkm5u6KNTv9PB/qiLzVmpd4LTSvE0XUUgIs0OP9aduHE3yrjP6PQXx+YZkEBcHcGoCcy+xAHZhLFf71dRCRyuVnl3u+AAHwTTehvKAAnS7s6WABwEl70ts3zMBdPiZ0kMphlnqd5LlaRgFqW9yG6fsYdGgnAoViD27k8YZCKQCIFeMyN31sAAjgAvDRyf6NjZsQLP94wa/gS/u5u6AlF4NQ8f1ENaEND0KTwZ6AArrXohPS1Ciqq286AAbiGBjcp98lefEEbuuenFSQAj+wkIrLNOMp1sHMdu2O7Im7K8xEF4OavgWENaGsA7vQBnOTCnnxeEA2paGwSwDU0eBLzH/gtdMF1/BagAI7sHQD6EAvnBwaEN7GziAFwgP/KAwrAzV8D4/j7w9jOFm3+EoJjFeod7ehvM6QWOIBraFCuA1fQ98+6wxwgFkoCcGBuYN/8+ElkQth/4uWxE4q/+wrpXpzA2Avg5+fv1mp7bQBbzRoM3aKfDCZTOADLa3AV9J+idSQgfsu/LriyTTmxOucrwJ0SIJIlZlNwRfF3/+06OAC/TM5fkwDWfhSJNB7T2YFesJMLVEkG8ACOGmtVusP56pPapcPoCQ3gjIOYOODJOYZIXkEHMwdGLyOOWMd+cQKD+WtrCFq/BCaOxxjqWsonMKshtQgAWFyDq6j/lLYdPv2USSyfRi//thFihonxSrcNY8JX2gjAl9qM5ESkRwe/JySB/3H+mpvBql03oYqT0Q70LBVwY5MAltbgUdR9CKvf5ve3qMe3//vtRerzBrYKIoCzisgpEVvnJ5QJ97QEINufsr6jkNjlb04F/ADk7+XyT3L+/m1wh4sef9d6UU8sMTBUwMUmASyswU3YfXTucE4BD+DcN3slys115hh4VhLQk1aQ7dtZJ8p6yV6uZXZQAF/+2x6B419Q/pobglZuQluNeqsh9SWTMEACuNNDVavuswUJAOc2w7Zf73TrhwXrUpnanH99D7W8e58gScC7FlKxGsrCXwfl76W9Irh/Bst3i7tUa0KfrEa9ZCcZWG3CAAlg2R7MTbrPUQTARa9Zf3snmYBLLcAlDMSVwNWwjsTeDBrAl0vfUvn7Dc3fZ5sJiFITmtMcHO0srFMMtWolMBTAkho83aL7rEEEwILmsypY8NoRAQxXQxqJueETmr+vMjXC4Dg848XoVnUAnKwuOdkJwKvRk4QCWFKDN+k+SQjAcjs5KijzRAVwhDsxtQJ+EADwq8z9sU/AfwSQ3v8lgF+TM1hqgyQnq0surcwlC7ij0ZPEAngwamRG3WdvU2QAi+2kwKWANkoFMFoNp0CtgDsR/uKlR9I8TYMIfY3OYGk1oZnTqdEO9Cx07mpXY1gAyz3BXMd9jHkOHcBR36VGnO+QARzRRkitgGMjAH5uRL5bBbBCEzpZLTs2Q9pLdtQiCuBDywVw7W+aJDkAC2Xim4Yuj3QAY9WwBnIFHNrgbzMATlYBXP+zSKvZnOFoJxlYzaZSYAAbCPzNNKGpjxMpftSyyKVwJkoHcAfePbUCBk1hOYBNz2Bp3GOtZle8GkoGktmDRAN40A/8rGxwseQ5DACLmM+mYcBrYAAYmRBugVEBPzTB31YA/MMwgCtfAyN6AYZWNprJBfQ+UcwCsIj5bfW8J1ryHA6Ao7pLdbA/ygAw8E7kFBgVcOcAvocr4OrXwJDSpDMDPSHlGe5lwAHcqQf+NjpIxyALYIGNlLoULPliADhgvZhcAYcm+NsKgI+WAVzzGhj0gZrFTtAe7GQpsUkAGwj8LXSQsvbEAnBQdymIJZyYAD5AT4xcASMugR3A9mew6l4Do1qD0Qz0JOLvpn2O61gTwPjDvMEO0hbkATxq5AzwSiAwARyg6Qe9An5sgb8Xn8FqisDJ7II3Q/GXriUUwKoCGH6Ypxu8w0kVAIzOJVXsd2IDuEOmH/QKuHMA38cMVsVZTmAjwNDSDPGjAy2gLoDBh7lVdx/5/DWzP8MEcNRYM1iRiQ1gUB6SAq8Cji3w9+IzWEaBdjU5tXlvzbo1XOzwY8SEjsoAxh6mwn2PNIFzzZMJYOg+dJ7qWwMfwB1w+/QKmH0J7ABu5Qq4UhtttRvzNkO6S9pLWUNtAEMP86ThPosNz+ECGGnJOl6dAACGmGMKzAqYewl8cQA3cwX8Jn1b/MV2zZOdZICppgNEGbUBDAz8m4776A9gIQAM7EXQhhojxnuYAI44N2ZUwJ0D+F6ugN9lkOXvhm4DAIP2kbuWxQ4/FkToqA1gYOBX6jZFE57DBjBukF4nl00QAAO08PUv5ZlUA/y9+BVwIwTe8IERVncCanM7/IiIFVQHMOwwJy3vkXuYvsAk+ABGNZaSivmuAQNgthbWwK+AeZfADuCmroDFCWx49AWRG6DC71H9FE9BBcDRTC5lzXtKrJMPYNBBHHWcOoAAzPXnLQAqYNYl8MUB3NYVsDCBRXIQULYOWdvBDj9GfqZUH8CgwJ9uzntSqAtgyDYYdhwR2GcDmOlEx4CogDsH8B1dAZvJ4mtn60fMWkYr/OVdAx+1AAyxvXRz3lO2IwSAAZa86jjSGnAAZiX3695uMtdgn79NAPgY7p3AYnGxMwM9RDmOuiePbG1oABgQ+Cdl7zloew4EwOw5PqYdA5TFBzDHiX7fP6cCZlwCO4AbvAIWmyWxnDDgLg2jHT113BimAmDc5MvN5K8paAA4Vl41yHpPAQlgxlmmXd/IXMKDef62AOC/Q1MCf55iE01ADnZitnLcQgSPKSgCmEvgzYD3DLqegwEw05LZdjyyjx8BYHJHZt39kVxL7RzA9/MQEnq0qQ5/mY1LbMyOVvhL1coaVAHMU6C0oVUnMGFDIACz+mBHJT8KaAATW/Frhm/krsA8fy/egRYg8Ajkr3xbcLQTs6Nq3OJrJSkDmKVAI34WNT0HBWAGgRH38B3XfzAADoCYwqqAqQ8iOYCbfAhJIo2vMRYzWuEv532eyYBWUtAGMANfZvJcUAeJ5DkwALMvMWob7ykIAJhijVk7yc5ErPO3AQD/aBDAsBdD14mKRAJL3BlGO4oaGbFzLCIqEMCWFKjaQeqDLoCJNTAq4S5NYtYgAWCCNaYc38iOPNEBfHdXwMA0vtqtHCldl2mORzv4GOn60AOwJQXqdZCongMEMGkTk5IbrUEGwMXWmPJ8I/vvPxnn78U70Hbb0JPpxUqtjpC6SCUqIzmGKQKYlPslY87DzF/JtokEMKD8q0XgDw4EA3ChElKeb+T33h4cwPfYgUYEkbpDqdFOdlDcgZSbUxuoi9AEcLnhbcme8+iMBkIBXHwQScl2PyoMB+Ci27iU6xv5FwHG+XvxDrTRm+DaLyUqCxayIXswo6lITAIOmgAubZ6vNp1nUfAcLIDL0gi0Tw0M7gEBnB9ZPlUAswIm9KAdwG0/hATpQ2vUJIOdkF2QDQhrKjOErlmBvF63dzCc6sk6j7FqflA8hsGIxjK9eRVZx6Nt/poHcGOvwfpofJQosvU6a13sLG8wQ4+BsooDuKStXHY024dW8hz+QYgcw2DFAAY9T+4cwHfbgSYiWDGIDHYqpqzAVYUe+weYMluZFQGce/8xGXeepW38KtMn6jezMs9RzpNt8/fiHWhjCFYOIrtLnaqdyO4lYDVVfR0+PmudGQBwjtmt6YacxyZ+c7Yg51O74OttBBbBPPDRAXyPDyH9CZM5s6OabEeLuuv7EsFV4+31Zujnqbv2HXBW5Nc3trxdZI1jmd7Mlwchu/LByv3DFzoQ1UBnmr8X70DbYfBkJIW/FvAUSoyrXls93n6OgWsqsQHgL3OYRvCbVUNOvX33//wgNvFjuF4E1/bnK6corQEH8J13oH9zwn7erjjD3FuKIfHjQude6Sz6YfkQtJSG1F6XsuSpZLTzzovXzGE5G9Eg1iR/bkXNMAk70PGpz9mv0rHvh+1PFYj/zUfL/L14B7o+hfthnrc3OS+v/5qn3mQIie/rXJZ5ntUX+Kqz+U1n85uy9PXSD/2OSgwB+Jf+3k1um22lehQ7WN7l3S77NjdQe+0fak/5wvsr/5l/xpWpTljpHMDegXa5LzEGYJe7l/iaTr+nLUPfcAZGkifD/L14B9rFxQHs4nKr8ugAvtO3cLg4gB3ALi6q0hnm78U70C4uNQHsynFxqSpPDmDvQLvckywOYBcXI/Jgl7+mAfzDTcelTTk7gF1cjEh0AHsH2sUBXPglNRcXF4Q8meWvaQC74bg4gF1cXHjSOYC9A+1yRz0vB7CLix0xy9+Lj2C5uFQE8OracXGpLA8OYH8I2OV+Wl4OYBcXQxmxVf5efATLxQUtX3wM6eTa+R97d7CbOBJFAXRMlH1sK2ILQRFbhvqB6fxEPsW/P6PWbFrdwSYUrlfUOft4UTG53KpnB9b2LoCNYNGKUQBDpD2poPk7GcECAQwtV2ABbASLh3HhRVg7qwOre46Zv5MCDLkl/4sBIukE8FUUBer9sAtgiOU1ZP5ORrBgxQC2OlDARgB7Bokq8vPW7ZcnAQzBvEfM30kBhl/z93DryzJGb6KEaiqwADaCRZj8vb2mjl6EBbVU4EkAewaJIIYMk1JJAEMtFVgAK8AEMWZ4W8alGayTJYZIFXgSwAowIXSHHD31wr9i8B4OKOVZACvAxM/fGw+BnzwGDAH9KX8/BbACTAR9ppwcBTAEtAlXgCcFGH4ach3VJo8BQx0VeBLACjABjLke1700g+UxYCjnWQArwATUHbJtFT95CgnqqMCfAlgBJlz+plOmKu0pJIhjE6wATwowdDmrahLAENR7rPydFGCaN+QcV750BGwIGgJVYAGsAFPamPWNGU8CGKqowJ8CWAGmrN+Of2/cgx49hQRVVOBJACvARMzf75fVZAgaaqjAkwBWgCmqzz0vtRHAEPkrtwD+0j9uD9Y0ZH9nxmgIGiJ7jXMCHC2A3Rysacw/MJXMYEFogQpwrADeuTeIkr/f2y++uANtBgvK28TJ38kEFs06pOx99WKmexM0BPAugE1gEbwBp/03LpnMYEEFFfhTACvAlP0cXg7glPuKJ0sOAbxGKcCTCSya1c0E8PWBOZrBgvjePwWwDWgKO2SuwF0ygwXxbSYBbAOawmYOga9+IfTl65nBghg6AawAU/x7cMpagWcKsBksUIFDBvDOLcH634NT1go85u3TwL1sBbANaAqbOwS+am6qS8kMFtTx5VsAm4CmsLlD4KueBR6TGSyQwNUFsG5AEbOHwFfU1rlrOQKGQLYC2AY0Zb8FzwbwOdulTpYbAjkK4J8+3AoUMrsHvTg3x+QIGGr6+i2AbUBT1NN8BV52e85vZltskMDhAnjnRqDYRzDl2YSev44jYAhmK4AdAFPSIWWJzkNyBAwSuLYAlr+UNH8IvORZpAVXebHWEM2x9QD2d4mSFuxBzyfwmPJNUwPrff4bD2D5S1np9gRe0qIdAYMEDhbAOzcAZY23JnC36ArudIho03AAOwCm+OdvUQB/3WC7w6Kft9AQ0tBsAMtfylsWwF89DzzcmN9AWdtGA1j+EsC4MIHT/vcI7g8Lf/ZknUECBwpg+UsEXVps338vfj2EBBI4VAB7AzQxLI/R/7z1/xuu+TE70CCBAwXwh05ADGO6u5NVBgkcJoDlL1F09w9gdzuENjQVwPKXhiqwHWiQwGEC2PkvgWzsQEPzfwaaCWDzz0TS2YEGfwcaCWD5SyyjHWiQwMcWAnjvF01TFXhnhaEG28cP4Be/ZdqqwNYX6jA8eAAbfyagjR1oYPVtaMe/cOXbsIxggRJcXwD3fruE9HS//D1bXVCCiwfwD1WAqDwEDKxdgtVf+OueY1jWFmorwdtHC2D1lyYrsBEsqDCCj48UwIafabQCu/NBBBcNYLvPNFqBFWCoNYKHRwjgD/FLsxVYAYZ69cfaA1j80m4F9gwSVF6Dj/UGcK8A0HIFdv9D9Rncvx3rC+CPH8ovbVdgJ8DwGPp+uEMM3yt933RfarNRgIEVu3X+3vux7zVfqnRQgAGgwPdRL8ECgALyzmHtLCgArF6BbUADwEKDCSwAKGC0AQ0A6+tsQANAAYMJaAAoYHQADADry7IJfbKOALB6AjsABoCr3bwJfX6xiACwegLLXwD4joP8BYACbsnfveUDgO/p5C8A1JTA8hcA1k9g+QsA6yew/AWA9RP4xaoBwM0JfPD+DQAo4Ko3cvwtfwEgj8HxLwAUsHQb2vYzAGTVL8nf3joBQOYSPNh9BoASLkXwWfsFgHvp3/6cvvsXawMAd83gX0P4fH7rpS8ArBXD3UvfiV4AAAAAAAAAAAAAAAAAAAAAAAAAAAAAAAAAAAAAAAAAAAAAAAAAAAAAAAAAAAAAAAAAAAAAAAAAAAAAAAAAAAAAAAAAAAAAAAAAAAAAAAAAAAAAAAAAAAAAAAAAAAAAAAAAAAAAAAAAAAAAAAAAAAAAAAAAAAAAAAAAAAAAAAAAAAAAAAAAAAAAAAAAAAAAAAAAAAAAAAAAAAAAAAAAAAAAAAAAAAAAAAAAAAAAAAAAAAAAAAAAAAAAAAAAAAAAAAAAAAAAAAAAAAAAAAAAAAAAAAAAAAAAAAAAAAAAAAAA4F/24EAAAAAAAMj/tRFUVVVVVVVVVVVVVVVVVVVVVVVVVVVVVVVVVVVVVVVVVVVVVVVVVVVVVVVVVVVVVVVVVVVVVVVVVVVVVVVVVVVVVVVVVVVVVVVVVVVVVVVVVVVVVVVVVVVVVVVVVVVVVVVVVVVVVVVVVVVVVVVVVVVVVVVVVVVVVVVVVVVVVVVVVVVVVVVVVVVVVVVVVVVVVVVVVVVVVVVVVVVVVVVVVVVVVVVVVVVVVVVVVVVVVVVVVVVVVVVVVVVVVVVVVVVVVVVVVVVVVVVVVVVVVVVVVVVVVVVVVVVVVVVVVVVVVVVVVVVVVVVVVVVVVVVVVVVVVVVVVVVVVVVVVVVVVVVVVVVVVVVVVVVVVVVVVVVVVVVVVVVVVVVVVVVVVVVVVVVVVVVVVVVVVVVVVVVVVVVVVVVVVVVVVVVVVVVVVVVVVVVVVVVVVVVVVVVVVVVVVVVVVVVVVVVVVVVVVVVVVVVVVVVVVVVVVVVVVVVVVVVVVVVVVVVVVVVVVVVVVVVVVVVVVVVVVVVVVVVVVVVVVVVVVVVVVVVVVVVVVVVVVVVVVVVVVVVVVVVVVVVVVVVVVVVVVVVVVVVVVVVVVVVVVVVVVVVVVVVVVVVVVVVVVVVVVVVVVVVVVVVVVVVVVVVVVVVVVVVVVVVVVVVVVVVVVVVVVVVVVVVVVVVVVVVVVVVVVVVVVdiDAwEAAAAAIP/XRlBVVVVVVVVVVVVVVVVVVVVVVVVVVVVVVVVVVVVVVVVVVVVVVVVVVVVVVVVVVVVVVVVVVVVVVVVVVVVVVVVVVVVVVVVVVVVVVVVVVVVVVVVVVVVVVVVVVVVVVVVVVVVVVVVVVVVVVVVVVVVVVVVVVVVVVVVVVVVVVVVVVVVVVVVVVVVVVVVVVVVVVVVVVVVVVVVVVVVVVVVVVVVVVVVVVVVVVVVVVVVVVVVVVVVVVVVVVVVVVVVVVVVVVVVVVVVVVVVVVVVVVVVVVVVVVVVVVVVVVVVVVVVVVVVVVVVVVVVVVVVVVVVVVVVVVVVVVVVVVVVVVVVVVVVVVVVVVVVVVVVVVVVVVVVVVVVVVVVVVVVVVVVVVVVVVVVVVVVVVVVVVVVVVVVVVVVVVVVVVVVVVVVVVVVVVVVVVVVVVVVVVVVVVVVVVVVVVVVVVVVVVVVVVVVVVVVVVVVVVVVVVVVVVVVVVVVVVVVVVVVVVVVVVVVVVVVVVVVVVVVVVVVVVVVVVVVVVVVVVVVVVVVVVVVVVVVVVVVVVVVVVVVVVVVVVVVVVVVVVVVVVVVVVVVVVVVVVVVVVVVVVVVVVVVVVVVVVVVVVVVVVVVVVVVVVVVVVVVVVVVVVVVVVVVVVVVVVVVVVVVVVVVVVVVVVVVVVVVVVVVVVVVVVVVVVVVVVVVVVVVVaQ8OCQAAAAAE/X/tDQMAAAAAAAAAAAAAAAAAAAAAAAAAAAAAAAAAAAAAAAAAAAAAAAAAAAAAAAAAAAAAAAAAAAAAAAAAAAAAAAAAAAAAAAAAAAAAAAAAAAAAAAAAAAAAAAAAAAAAAAAAAAAAAAAAAAAAAAAAAAAAAAAAAAAAAAAAAAAAAAAAAAAAAAAAAAAAAAAAAAAAAAAAAAAAAAAAAAAAAAAAAAAAAAAAAAAAAAAAAAAAAAAAAAAAAAAAAAAAAAAAAAAAAAAAAAAAAAAAAAAAAAAAAAAAAAAAAAAAAAAAbARETQm2kwYIfgAAAABJRU5ErkJggg==;" vertex="1" parent="1">
          <mxGeometry x="10" y="400" width="130" height="73.13" as="geometry" />
        </mxCell>
        <mxCell id="FLXqESvb-L9VidNTGPHK-14" style="edgeStyle=orthogonalEdgeStyle;rounded=0;orthogonalLoop=1;jettySize=auto;html=1;exitX=1;exitY=0.5;exitDx=0;exitDy=0;entryX=0;entryY=0.5;entryDx=0;entryDy=0;" edge="1" parent="1">
          <mxGeometry relative="1" as="geometry">
            <mxPoint x="240" y="624.5" as="sourcePoint" />
            <mxPoint x="310.9200000000001" y="625" as="targetPoint" />
          </mxGeometry>
        </mxCell>
        <mxCell id="FLXqESvb-L9VidNTGPHK-8" value="" style="shape=image;verticalLabelPosition=bottom;labelBackgroundColor=default;verticalAlign=top;aspect=fixed;imageAspect=0;image=data:image/png,iVBORw0KGgoAAAANSUhEUgAAANgAAABsCAYAAAAIe3yOAAAACXBIWXMAAAsSAAALEgHS3X78AAAN/0lEQVR4nO2dT2wbxxWH35L6Z8sBLTdJA7RFYulawAHoQw9F7QBUDwsEzaFMLyniXiSgCRChFy7apLGBHlZF0ehUQArQ2MhNPNRGAR4qukkOaVHABOw0lxQwazWHwq4dWahdS5ZJFkO/oUczwyWX2tmdJd8HCJJmdmdJYn58M2/evHFarRYQBGGGDH2uBGEOEhhBGIQERhAGIYERhEFIYARhEBIYQRiEBEYQBiGBEYRBSGAEYRASGEEYhARGEAYhgRGEQUhgBGEQEhhBGIQERhAGIYERhEFIYARhEBIYQRhkLA0fbsFvvAAAr+DPKeUC81wDgKsAcLHqZS8m8HwipVidkwOFdRYAXlcqk2MTAJZIaEQ/WCuwgt84AwArAJBTKu3gEgCcqXrZu5a+PsICrBQYiusDpcI+2NDxNImM6IZ1To4UiYtxAgA+VkoJArFKYDjnWlEq7OZEwW+k7TUTMWGbBTtv8ZwriLcKfuPFgHpiRLFGYAW/cTohF3xUkBUjFGyyYOeVknRxquA3Xkn5eyAixgqBFfzGEgA8r1Skj5WC3zg6BO+DiIjEBYYd8qxSkU7Yl8TSkLwXIgJssGA2LyYPwhJ6QwkiWYGh582mMKgoyMXt8HBdd0YpJKwg0UiOgt/4OOWewyBeqnpZI4vQruvmAWABANjvWQBgAqsBQB0A1iqVSlW63me/K5WKpzSWALa9HpMkJrCURWwMwrWql418bcx13VUUVxBrAOBVKpUttG5f4bXHWFnAfcax7fWYJpEh4pA5NrpxAr9EIkMSFxPRPOuk+HMSAJYBYAuvWbXq0xhRktoPNixu+V4wt/3FKIKBBXExAb0qDwNxiFhzXbcMAGwItqg0QsRO7AJDD9uouLJzaKkP9H6FORd0EVeHSqVSQ8sWpv22k8TUcI21P+xDwW4kYcGGzS3fCxanuFL1sjd6XBcEF1c5SFxhcV23BABFdJaw/5k4WfvLoiCE69jzl8XHuK5bQItZq1Qqi0I5Ey2zuqx+xnVd5oAp49B2ZIh1Dobxhj9QKoafg4aB5fF3lOJaRWHk0ftYw7+ZmDYk1/8M1umWA3hdXmibeTavoCi5hxOw7XUc5o4EcTs5RjUgduA4RezovPPWlAsGa9OX5nNzlUrlJDpKuNDWlRv7ZxWXD5jFarfNnoHzwtkuQh1KYhMYxhueUCpGhyi+XOpKSUjQupTwLiauMm9BmL8x4RVw+BcK13WLOCxkr3WxUqnUhfbX0NM5MsQisBFxy/fi+YLfCP0Z4FyId9LQHV5Dxxrq5nP4PC66QZ7H22fzNd1QkOZgBjg7Yo6NbiwNGG3PBTar1ISHtxE03NQJo1+4wLTWFkUX9OyhwrjA0C3/llIxmgwap8gtzUIEcYdcPHmlJhr6+TIIqhsq4nDTR76RcvaZFnxnrqmUR0cLoNmA6zf34G+bR6Ju/PWC3zgfJk6RucZxbpPvZxEZ3epVnFPJ8LLZgPUpPjTUWiEJWSz8Hq2A8X2MjJPDqMDQcxZ5MO/CqQZ8+5umYyiZcZ+ENz+4Cze2I99DyYbMp5XSYJioNgQrtiwLSHBgtD2EruvOyyJh97iuW0URKWJFD2PbdY9OCehm9fB1yHGRa/gamJOkJK6b4fUlGCFMW7BUueVvbTfg2Vx2X9n02A40H25DZiLSKSRz27OkpX1bdxTGPIqMWYEiLgzXuNdPEsAy3qOzFou4TrWAnkLRqZHn7nvh+rIgmuvC9UV5voYBxh666n1sv4ZWq4iX1TWWbygxNgdDj1lq4g1/+8e78NP3b0P95p5S13q4Da29+0r5ARnEo8g66pwQ1MtDqEqi946tZ8kRF1I7dVzzqmJHLwltsLp50Tri9R4+U7y+LgmRX7+GIubCLwnrbvOjtNBsbLtKwW/cMCUw/4ePIh8iMoH95Ytd+PWPj8Hs18c75aUP78Bnmw/bf2cOPwdOZkK59wD8JIwVk8H5jEhVN6cKijXEOEduTbZ0rnvp+qJ8bcBcbt9rFNfcgu4ZJowIDOdef1AqIsKEwKDLEFEUGDgZyBx6NkqRXap6WcpENcSYGiIaTcJ5b1cpigRZXO1n7QhCbjWh+eB2+3dEjGJc5khhyoIZTQVwOPsAjh/dVsqjholLNydjFoxZMmbRIuD4ASPtCYtJxQF8Mv9rHIK///th2/mQBK3mQ2jubkFm6mtRPJ0txJPAhpTUHiHL3ObO2LRSHhetR/fbIiOIIFJpwZ5EcuSgtTcO0Goo10QBi+T46xc7XVtq7f0XWpkJcMYPJPSBrNco7xJOE6YEdtXkHGx/JMchpT5K3uiyNsZp7t6BTCYLTnZKqeuHMPMvdHnzdG0zuNCs7DIm7MHUEDGVh9IxN73MkSlHKZNp7txuz8sG4FK/t2AI0zrfgo/FeYyWuKKL2NCVEfFiUmDJeCAGJCiSoydt9/2tQdz3fR2kjpaLx/B5GM1xDKMo6ii0VekeFgr1lWYxmogRI0NElqYMT318V6kcVlBkIdz3myGiOHh0+5o0HCy7rruF4tJFzhMJY9LJsYLpylKx0fJnLx+F176nRnKE4bH7/g5kpp7p564wsYidUCa5AsOV5pQ7+iQojKob3RwsYdoa9Llh70kao6mzMQ/He0rFAXn75Ybh/WCPub/bgjfe/w/cvKvOzYJgywc91sg+qXrZvrer4P4uH63UfFAHw2xRcs560KRV4w4Tce9XDVNu14XrOinbsL7Ec25gIhs+PyxIyXmU9G/wJPbRF55bE9K5bcivM6D9VDh3jLrpq152xcTheu/9KQvHc/eg1Xig1EXJze1GaHEBrpG19qaC3PdhI+nXBO/hdcze2y1HYl7atqJsfBQEC2gV64Io2ZYUMZpezGrlC83U0aJsaLJe8ddQwKh9/twFbGNGuH5WSB+n228mt99JE8f2v8litI041sFYfvaPlNIDcH8X4PNbOWjuPGp3ZhtpDxWdDDhjyjLChbCnruAeq3khkecC7uXSfZN72An59hMPBdS2JGi5uFA8fq+0WZPlRZyTrE+eWziho4MgkkUeLY9Wqm1J+aZLFAsX17Jo3dBC6TZi+sJzF7no8T2s8s9A2BhqHbGcrsLys5sKbG3u3LFWZJroe+ZZffEgsYfYuYqSu14ZOqIXMS+nZhPKPd0Qy3XdDWzbQ2H4wt6vk7rhKZ+TiXMztFarOOQ7KeTWZ18Iyh4y13XX8X3x65lor2P1Sc3ubd4+26ITKlV4nMQVybFkSmBsrtPcATtFhp7F7KHnADLtj/qgKbT5nqqysF2fW6oNcTimQ0pi2u1bv4wCK0o5DIP2mi3wnCHo1awLu5454oZQHWVhxzNI2amKAcsNhW5OFxuIRWCsUxX8xjlTbnvrRbZzm1myL8HJRJZCATvUMubX2MDOXegyL+OIORG7dci+y7vMkTjifA36SBcnl88Kv3XDx1QQZ7DvisnFZyayJIN/g2i1HjGh+YMeY8TmNOiYUMChExdVr0ShnYxPEUV5cMcLHz52fjSpBAKzTWlydHBB14Qz0LQ/AV8WiRObwLBzGT22yFaROWPTm9WfT/5OqegDdBhcERLI6Oi6TiaC7vdeWYJF93kv+LVlTYo4WcC9BCa/nk56OUCLLf+we2xfE4t1uwpGLnyiVESIdSJzxiAzOTPwSZfYcfm8xUfBdcDJftDpK3JH522VZCsmrI1BwBxNZJ8IhHZ0wzr+3AX5iwL/35f+TbDMM5rhJl/vW0fniLUksV3lbNRuexmb5mSZ8elPIzgMnZ9K0rZmOO+qSYuva5IV4WtbPoqQOSmYZ9DDDi2uqW0J61aAHsR+LBhfnyui91FMzybnY2SOmTVhGaAspG8rCqe6yO+7V3o5xRNqE7FvuMTOdkGpiBgbLJmTnXzkTOReUypCgsOgeamDlYRO5mkWXBcFC5CXPHTzKA7RE1kQ2uqr0+KQcxGFIqZn65bObVEQBA9gLuLr1F1fx9eqSy9XldPL2Ugs62AyeADCjTjiFJNcJ8tMHrtw+Z1c1Aehi2nW9qVC0yFcr7jZcSiX79VWP27wMOncpOe2r8f71/k6mOYecd2vZ3o5W0hEYPAkMWks0fZJiMwZO3wvM/X0t6I4AH0YENbtmOg8+S0JC9prGmucWhLLyVH1skxgm0qFAZIYLjrjR86RuPbBc+GX5CUH/J+XDdX5YYlZMHhyZrNRh4dIXJbMGX9q88/vPv2CUjHiSEHGPD5yRhjy9j3/SwuJZpVCh4dRt71ILJasHeA7/aZSTgCK51XBadGZH2LM5NDlFknUgsGTA/r+qVQYxKQly0zkPr38y2PfVSqIfYhrcDpHyLCQuMDgschW4j4F04jInGwzO/2NOcrUS3BsSTx6Nu4kOSaGi5mJ3IckLkLECoHFEaeoI0qROdnJHWf8SOzvgbAba1JnY5ziNaXCMFGJzJnIvUNueULGttz0iViAg4rMGTt08/Ivpn+jVBAjj1UCQ7f9OaUiBgYWmZNpOWPT31fKiZEHbDxdBSM8jAcD6xhIZE527fLbT32mlBMjD9h6fFHVy55JhSVznH9Ac0+JqyOITn+y9ZNAS/ZSnJEenD5F9jm0Wj/66FfHybFBdMWKheZeYMwis2qno05iGkSXxegvAeD3LMcIiYvoRSoEJoPhVbEE0zbu/Uv89yqJighDKgVGEGkhtWc0E0QaIIERhEFIYARhEBIYQRiEBEYQBiGBEYRBSGAEYRASGEEYhARGEAYhgRGEQUhgBGEQEhhBGIQERhAGIYERhEFIYARhEBIYQRiEBEYQBiGBEYRBSGAEYQoA+D/xI9I4pvXoTAAAAABJRU5ErkJggg==;" vertex="1" parent="1">
          <mxGeometry x="100" y="587" width="150" height="75" as="geometry" />
        </mxCell>
        <mxCell id="FLXqESvb-L9VidNTGPHK-11" value="" style="rounded=0;whiteSpace=wrap;html=1;" vertex="1" parent="1">
          <mxGeometry x="320.92" y="540" width="239.08" height="170" as="geometry" />
        </mxCell>
        <mxCell id="FLXqESvb-L9VidNTGPHK-12" value="" style="shape=image;verticalLabelPosition=bottom;labelBackgroundColor=default;verticalAlign=top;aspect=fixed;imageAspect=0;image=data:image/jpeg,/9j/4AAQSkZJRgABAQEAYABgAAD/7QE0UGhvdG9zaG9wIDMuMAA4QklNBAQAAAAAARgcAVoAAxslRxwCeAA3TWFnZSBibGFjayBob3Jpem9udGFsIGxvZ28gd2l0aCB0cmFuc3BhcmVudCBiYWNrZ3JvdW5kLhwCWgALU0FOVEEgQ0xBUkEcAnQAAQAcAmUAAQAcAlAACEhhbmQtb3V0HAJfAAJDQRwCGQABABwCaQAEbWFnZRwCBQAEbWFnZRwCNwAKMjAyMToxMDoxORwCcwAETWFnZRwCbgAETWFnZRwCZwABABwCegACQ04cAigADFNlZSBSZWxlYXNlIBwCFAA7UFJOQXJjaGl2ZV8xWWVhcnxXZWJzaXRlRGlzdHJpYnV0aW9ufEVudGVybWVkaWFEaXN0cmlidXRpb24cAg8AB0ZJTixDUFIA/+ICHElDQ19QUk9GSUxFAAEBAAACDGxjbXMCEAAAbW50clJHQiBYWVogB9wAAQAZAAMAKQA5YWNzcEFQUEwAAAAAAAAAAAAAAAAAAAAAAAAAAAAAAAAAAPbWAAEAAAAA0y1sY21zAAAAAAAAAAAAAAAAAAAAAAAAAAAAAAAAAAAAAAAAAAAAAAAAAAAAAAAAAAAAAAAKZGVzYwAAAPwAAABeY3BydAAAAVwAAAALd3RwdAAAAWgAAAAUYmtwdAAAAXwAAAAUclhZWgAAAZAAAAAUZ1hZWgAAAaQAAAAUYlhZWgAAAbgAAAAUclRSQwAAAcwAAABAZ1RSQwAAAcwAAABAYlRSQwAAAcwAAABAZGVzYwAAAAAAAAADYzIAAAAAAAAAAAAAAAAAAAAAAAAAAAAAAAAAAAAAAAAAAAAAAAAAAAAAAAAAAAAAAAAAAAAAAAAAAAAAAAAAAAAAAAAAAAAAAAAAAAAAAAAAAAAAdGV4dAAAAABGQgAAWFlaIAAAAAAAAPbWAAEAAAAA0y1YWVogAAAAAAAAAxYAAAMzAAACpFhZWiAAAAAAAABvogAAOPUAAAOQWFlaIAAAAAAAAGKZAAC3hQAAGNpYWVogAAAAAAAAJKAAAA+EAAC2z2N1cnYAAAAAAAAAGgAAAMsByQNjBZIIawv2ED8VURs0IfEpkDIYO5JGBVF3Xe1rcHoFibGafKxpv33Tw+kw////2wBDAAQCAwMDAgQDAwMEBAQEBQkGBQUFBQsICAYJDQsNDQ0LDAwOEBQRDg8TDwwMEhgSExUWFxcXDhEZGxkWGhQWFxb/wAALCANICAYBAREA/8QAHQABAAEFAQEBAAAAAAAAAAAAAAkBAgYHCAUDBP/EAF8QAQABAgQBBAkLEQUGAwgDAQABAgMEBQYRBwgSITEJOEFRYXGVs9ETGBkiMlVXdXaBshQVFzM2N1ZzdJGTlKGxtNLTI0JScoIWJFRiksFDZfAlJkRFU2Oi4TWFwvH/2gAIAQEAAD8A7+AAAAAAAAAAAAAAAAAAAAAAAAAAAAAAAAAAAAAAAAAAAAAAAAAAAAAAAAAAAAAAAAAAAAAAAAAAAAAAAAAAAAAAAAAAAAAAAAAAAAAAAAAAAAAAAAAAAAAAAAAAAAAAAAAAAAAAAAAAAAAAAAAAAAAAAAAAAAAAAAAAAAAAAAAAAAAAAAAAAAAAAAAAAAAAAAAAAAAAAAAAAAAAAAAAAAAAAAAAAAAAAAAAAAAAAAAAAAAAAAAAAAAAAAAAAAAAAAAAAAAAAAAAAAAAAAAAAAAAAAAAAAAAAAAAAAAAAAAAAAAAAAAAAAAAAAAAAAAAAAAAAAAAAAAAAAAAAAAAAAAAAAAAAAAAAAAAAAAAAAAAAAAAAAAAAAAAAAAAAAAAAAAAAAAAAAAAAAAAAAAAAAAAAAAAAAAAAAAAAAAAAAAAAAAAAAAAAAAAAAAAAAAAAAAAAAAAAAAAAAAAAAAAAAAAAAAAAAAAAAAAAAAAAAAAAAAAAAAAAAAAAAAAAAAAAAAAAAAAAAAAAAAAAAAAAAAAAAAAAAAAAAAAAAAAAAAAAAAAAAAAAAAAAAAAAAAAAAAAAAAAAAAAAAAAAAAAAAAAAAAAAAAAAAAAAAAAAAAAAAAAAAAAAAAAAAAAAAAAAAAAAAAAAAAAAAAAAAAAAAAAAAAAAAAAAAAAAAAAAAAAAAAAAAAAAAAAAAAAAAAAAAAAAAAAAAAAAAAAAAAAAAAAAAAAAAAAAAAAAAAAAAAAAAAAAAAAAAAAAAAAAAAAAAAAAAAAAAAAAAAAAAAAAAAAAAAAAAAAAAAAAAAAAAAAAAAAAAAAAAAAAAAAAAAAAAAAAAAAAAAAAAAAAAAAAAAAAAAAAAAAAAAAAAAAAAAAAAAAAAAAAAAAAAAAAAAAAAAAAAAAAAAAAAAAAAAAAAAAAAAAAAAAAAAAAAAAAAAAAAAAAAAAAAAAAAAAAAAAAAAAAAAAAAAAAAAAAAAAAAAAAAAAAAAAAAAAAAAAAAAAAAAAAAAAAAAAAAAAAAAAAAAAAAAAAAAAAAAAAAAAAAAAAAAAAAAAAAAAAAAAAAAAAAAAAAAAAAAAAAAAAAAAAAAAAAAAAAAAAAAAAAAAAAAAAAAAAAAAAAAAAAAAAAAAAAAAAAAAAAAAAAAAAAAAAAAAAAAAAAAAAAAAAAAAAAAAAAAAAAAAAAAAAAAAAAAAAAAAAAAAAAAAAAAAAAAAAAAAAAAAAAAAAAAAAAAAAAAAAAAAAAAAAAAAAAAAAAAAAAAAAAAAAAAAAAAAAAAAAAAAAAAAAAAAAAAAAAAAAAAAAAAAAAAAAAAAAAAAAAAAAAAAAAAAAAAAAAAAAAAAAAAAAAAAAAAAAAAAAAAAAAAAAAAAAAAAAAAAAAAAAAAAAAAAAAAAAAAAAAAAAAAAAAAAAAAAAAAAAAAAAAAAAAAAAAAAAAAAAAAAAAAAAAAAAAAAAAAAAAAAAAAAAAAAAAAAAAAAAAAAAAAAAAAAAAAAAAAAAAAAAAAAAAAAAAAAAAAAAAAAAAAAAAAAAAAAAAAAAAAAAAAAAAAAAAAAAAAAAAAAAAAAAAAAAAAAAAAAAAAAAAAAAAAAAAAAAAAAAAAAAAAAAAAAAAAAAAAAAAAAAAAAAAAAAAAAAAAAAAAAAAAAAAAAAAAAAAAAAAAAAAAAAAAAAAAAAAAAAAAAAAAAAAAAAAAAAAAAAAAAAAAAAAAAAAAAAAAAAAAAAAAAAAAAAAAAAAAAAAAAAAAAAAAAAAAAAAAAAAAAAAAAAAAAAAAAAAAAAAAAAAAAAAAAAAAAAAAAAAAAAAAAAAAAAAAAAAAAAAAAAAAAAAAAAAAAAAAAAAAAAAAAAAAAAAAAAAAAAAAAAAAAAAAAAAAAAAAAAAAAAAAAAAAAAAAAAAAAAAAAAAAAAAAAAAAAAAAAAAAAAAAAAAAAAAAAAAAAAAAAAAAAAAAAAAAAAAAAAAAAAAAAAAAAAAAAAAAAAAAAAAAAAAAAAAAAAAAAAAAAAAAAAAAAAAAAAAAAAAAAAAAAAAAAAAAAAAAAAAAAAAAAAAAAAAAAAAAAAAAAAAAAAAAAAAAAAAAAAAAAAAAAAAAAAAAAAAAAAAAAAAAAAAAAAAAAAAAAAAAAAAAAAAAAAAAAAAAAAAAAAAAAAAAAAAAAAAAAAAAAAAAAAAAAAAAAAAAAAAAAAAAAAAAAAAAAAAAAAAAAAAAAAAAAAAAAAAAAAAAAAAAAAAAAAAAAAAAAAAAAAAAAAAAAAAAAAAAAAAAAAAAAAAAAAAAAAAAAAAAAAAAAAAAAAAAAAAAAAAAAAAAAAAAAAAAAAAAAAAAAAAAAAAAAW3I3j/10uWeVHy2NL8HuKV/RVrSeJ1DicLaoqxV/D4+mzTarmPcbTTVvMd3vNc+yV5D8FGY+WKP6Z7JXkPwUZj5Yo/pnsleQ/BRmPlij+meyV5D8FGY+WKP6Z7JXkPwUZj5Yo/pnsleQ/BRmPlij+meyV5D8FGY+WKP6Z7JXkPwUZj5Yo/pnsleQ/BRmPlij+meyV5D8FGY+WKP6Z7JXkPwUZj5Yo/pnsleQ/BRmPlij+meyWZD8FGY+WKP6brfk6cRLPFfg3knEDD5Xcyy1nVu5cpwly9F2q1zblVvpqiI335m/V3WbgAAPyZtjbOX5diMdiKoot2KJrqmZ70OJs+7I7kOWZ5jct+xdmN76jxNyx6pGbURz+bVNO+3qfRvtvs/L7JXkPwUZj5Yo/pnsleQ/BRmPlij+meyV5D8FGY+WKP6Z7JXkPwUZj5Yo/pnsleQ/BRmPlij+meyV5D8FGY+WKP6Z7JXkPwUZj5Yo/pnsleQ/BRmPlij+meyV5D8FGY+WKP6Z7JXkPwUZj5Yo/pnsleQ/BRmPlij+meyV5D8FGY+WKP6bJuDPL7ybiFxW0/oixw2x2BuZ/mFrBU4mvNaK4szXO3Omn1ON9u9u7Hp6lQAAAAAAAAAAAAAAAAAAAAAAAAAAAAAAAAAAAAAAAAAAAAAAAAAAAAAAAAAAAAAAAAAAAAAAFGFcoTiBlvDLhFnWs8yrp5uX4WqbNEztN27Me1pjwzP7kJuuNQZlqrVuY6jze9N/HZniq8RiLk/3qqp3l5IAAACYrsa/aT6G/Jb/APE3W9AAAGpOU1qaLGDs6aw1z2+ImLmJ5s9VMT0RPz7Shz1993WdfGWI85U8gAAAG0+RB23fDv5RYb6aasAAAAAAAAAAAAAAAAAAAAAAAAAAAAAAAAAAAAAAAAAAAAAAAAAAAAAAAAAAAAAAAAAAAAAAAW1TETsjZ7L/AMY6s+15hOFmTYyasBkf9tmfqdXtbmJnqonw0RE/9TiquqalAAAAExXY1+0n0N+S3/4m63oAAEztG78We5jZyvKMTmGJqim1h7c1VTMuU9U5xiM91JiM0xNUzVfu86mJn3NO/RHzQjR19066zr4yxHnKnkAAAA2pyIO274d/KLDfTTVAAAAAAAAAAAAAAAAAAAAAAAAAAAAAAAAAAAAAAAAAAAAAAAAAAAAAAAAAAAAAAAAAAAAAAAG8NfcpriXlvCXg7nGtMfXTNeEsTThLMz9vv1RtRR88oVdY53j9Sanx2fZpiK8RjMxxFd+/crneaqqp3eYAAAAJiuxr9pPob8lv/wATdb0AADuNN8pvVEUYa1pnCXPbVbXcVtP93uU/+u80xR7uPHCOLXv3c518Y4jzlTyQAAAbU5EHbd8O/lFhvppqgAAAAAAAAAAAAAAAAAAAAAAAAAAAAAAAAAAAAAAAAAAAAAAAAAAAAAAAAAAAAAAAAAAAAAAFkz3+70bI0ey78X51PxKwvDTKMTFWX6djn43mVe1uYmqN9p7/ADaeb88uNKo6IWgAAACYrsa/aT6G/Jb/APE3W9AACX4dQ5nYyjJMTmOJqim3h7c1z4dnJ+pc0v53nuJzTEzM3MTcmuN+54H4qfdx/mhHFr37uc6+McR5yp5IAAANqciDtu+Hfyiw3001QAAAAAAAAAAAAAAAAAAAAAAAAAAAAAAAAAAAAAAAAAAAAAAAAAAAAAAAAAAAAAAAAAAAAAAE9TWnKw4n4ThJwPzrV165TGKtWJs5fbmemvEV+1o2ju7TMTPgiULWpc1x2eagxmcZnfqvYzHX6r9+5VPTVVVO8/vfhAAAABMV2NftJ9Dfkt/+Jut6AAEtLcpzVFXOs6Zwt3eIj1TFbT+aP3tOK0e7jxwji1793OdfGOI85U8kAAAG1ORB23fDv5RYb6aaoAAAAAAAAAAAAAAAAAAAAAAAAAAAAAAAAAAAAAAAAAAAAAAAAAAAAAAAAAAAAAAAAAAAAAAJWzVMz0dxGF2WnjHTrLiph+H2TYuLmVaYmZxM26t6buKmOmf9MTzZjvxLkGetQAAAAExXY1+0n0N+S3/4m63oACk77vO1Xm+HyPIMTmeLqiLeHomrbf3U9yn53KOoMyxGb51icyxVc1XcTcmurfueD82z8atHu48cI4te/dznXxjiPOVPJAAABtTkQdt3w7+UWG+mmqAAAAAAAAAAAAAAAAAAAAAAAAAAAAAAAAAAAAAAAAAAAAAAAAAAAAAAAAAAAAAAAAAAAAAAFKupqzlh8UcHwk4EZzqi5XTGNqtThsutzO03L9cbRt4Yjer5kL+b5ji80zXE5lj71V/E4y9Xfv3KuuuuqZmqZ8czL8sgAAAAJiuxr9pPob8lv/xN1vQAFtXXM+BpPlO6mm5irGm8NX7WztdxO0/3u5E/sn52oeqej5hWj3ceOEcWvfu5zr4xxHnKnkgAAA2pyIO274d/KLDfTTVAAAAAAAAAAAAAAAAAAAAAAAAAAAAAAAAAAAAAAAAAAAAAAAAAAAAAAAAAAAAAAAAAAAAAAG8b7La5jmTPO28KLTsrfGSvXXGSrQ+VYrn5LpWubdzmz0XcV1VzP+Wd4jxuTgAAAABMV2NftJ9Dfkt/+Jut6ABu8vWWc4fIdOYrNcRMc3D25mmJ7tXVEfn2co51mGIzbNL+Y4qua7uJuTXMz19fRHzdT8orR7uPHCOLXv3c518Y4jzlTyQAAAbU5EHbd8O/lFhvppqgAAAAAAAAAAAAAAAAAAAAAAAAAAAAAAAAAAAAAAAAAAAAAAAAAAAAAAAAAAAAAAAAAAAAAFtW3O7nhal5afFbDcIeAub6h9WojM8RbnC5Zaqnprv1RO3R3ojf9iGbMcXiMdj7+Oxd6q9iMRcquXblc71VVTO8zMvzAAAAACYrsa/aT6G/Jb/8Tdb0AFvXv3Wj+U3qeMTj7GnMLc3t4f8AtMRNM9HP26IlqWOnp7/WCtHu48cI4te/dznXxjiPOVPJAAABtTkQdt3w7+UWG+mmqAAAAAAAAAAAAAAAAAAAAAAAAAAAAAAAAAAAAAAAAAAAAAAAAAAAAAAAAAAAAAAAAAAAAAAUr6utFJ2U7jBVxC45V6YyzFeqZLpWasNb5lXtbl+dvVK/DHRTEeKXLoAAAAAJiuxr9pPob8lv/wATdb0AHj64zqxp3TGLzS/VEepUTzI/xVT1Q5SzTGXswzG/jcTVzruIrmuud+7M7vhM7zvIK0e7jxwji1793OdfGOI85U8kAAAG1ORB23fDv5RYb6aaoAAAAAAAAAAAAAAAAAAAAAAAAAAAAAAAAAAAAAAAAAAAAAAAAAAAAAAAAAAAAAAAAAAAAAFs1f8A6aZ5dnF61wg4DZhnFm7TGb5lTODyu3ztqpu1RtNcf5d4mUOGYYm9jMXdxeJuVXL1+5Ndyqqd5qmZ3md3wAAAAABMV2NftJ9Dfkt/+Jut6AKb9HcaJ5TGqPq3OaNPYS7vawXt8Rt3a57nzdLVUdEbdzuAK0e7jxwji1793OdfGOI85U8kAAAG1ORB23fDv5RYb6aaoAAAAAAAAAAAAAAAAAAAAAAAAAAAAAAAAAAAAAAAAAAAAAAAAAAAAAAAAAAAAAAAAAAAAAFszEVdcdKJvsn3GL7JPHe7keV4n1TItL74XDc2rei7e/8AEuR4d55v+lzRM9GygAAAAAJiuxr9pPob8lv/AMTdb0BSep4uvc9s6d0riszuzHOt0bW6Z/vVz1Q5VzDFXsbj7uLxFya7t6ua66p7sz1y+ACtHu48cI4te/dznXxjiPOVPJAAABtTkQdt3w7+UWG+mmqAAAAAAAAAAAAAAAAAAAAAAAAAAAAAAAAAAAAAAAAAAAAAAAAAAAAAAAAAAAAAAAAAAAAABorsg/Fu3wo5PeZYnC3ooznOqasBltHO2q51cbV1x3ubTMz8yHrF3bl/E3L925VcuXaprrrq66qpneZn53zAAAAAATFdjX7SfQ35Lf8A4m63oBPU0DyldTfXHUFORYa7vYwE/wBrET7q5PXv4ujbxtYgCtHu48cI4te/dznXxjiPOVPJAAABtTkQdt3w7+UWG+mmqAAAAAAAAAAAAAAAAAAAAAAAAAAAAAAWXbtq1G9y5RR/mqiH5rma5Xb39UzLB07dfOv0xt+18/r9kfvzl/61R6T6/ZH785f+tUek+vuR+/OX/rVHpfW3mmWXJ2ozHCVT3qb9M/8Ad+i1dtXY3t3KK4/5aoleAAAAAAAAAAAAAAAAAAAAAAAAAAAAAAAAAAAAErLlVNuiq5XVTTTTG9Uz1REd1Ej2SnjJ9lPj1icDlt+qrI9MzVgcJtPRcuRO1yuY7vtudET3nOdfWoAAAAAAmK7Gv2k+hvyW/wDxN1vQUl4PEbUFnTOk8TmNyY9Upp5tin/FXPV+1yvjsRdxeMuYq9VNdy9XNVU1dczPd8b5ACtHu48cI4te/dznXxjiPOVPJAAABtTkQdt3w7+UWG+mmqAAAAar5auudQcN+TRqfWmlsRZsZtldqzVhrl6zF2imar9uid6Z6J6KpR3Ty8eUXEb/AF/ybp/8ms+hT1+nKL9/8m8jWfQev05Rfv8A5N5Gs+g9fpyi/f8AybyNZ9B6/TlF+/8Ak3kaz6D1+nKL9/8AJvI1n0K+vz5Rfv8A5N5Gs+hszkk8uPX+bcZ8uyPirmOXX8jzWr6mpu2cDRYnDXqp9pXM09cTPtdvDv3Ei9qumu3TXRVFVNUbxVE7xMd+FwAAAAE9Tz9QZpgckyLF5xmeJow2DwNmq/iLtc+1oopjeZmUZfFLl78Y72v81nRmYZZgsipxNUYCzeyy1dri3E7Rzqp6Zlj3r8+UXH/z/JvI1n0Kev05Rfv/AJN5Gs+g9fpyi/f/ACbyNZ9B6/TlF+/+TeRrPoPX6cov3/ybyNZ9B6/TlF+/+TeRrPoVo5efKLmqI+v+TdM+81n0JPeDuc4/UXCzIM8zSumvG4/AW72IqooimJqqjp2iOqGT0+5hUAABSuJmOjrcZdke5VmqOE2tMs0Zw3x2Bt5pTZnEZpdv4Wm/6nTVtzKIirojeN5nxOZ/X6cov3/ybyNZ9B6/TlF+/wDk3kaz6D1+nKL9/wDJvI1n0Hr9OUX7/wCTeRrPoPX6cov3/wAm8jWfQev05Rfv/k3kaz6FY5ePKLq/+f5N0d36zWej9joDsfPK+1dxG4pXtEcUMdgrt7MrXOyq/YwtGHiLlPXbnm9e8dPT/hdx09feXAAAAAtq37jGNfcQ9D6IwdeK1XqjLcrotxvVTfvxz9v8kb1fsc78TOX7wd09cuYbT9nM9R3YieZewtmKLMz4Zrmmrb5mh9d9kY4gY6LlnS+kMqymOq3fu3Jv17d+aZp2ak1byxOP+oKpqva2qwe/R/7PsU4fu/8AKwDO+M/FnN66pzLiNqXFc7eJi5mV2YiN99ojfqY1j9S6gx/qn1dnWPxHqsbV+qX6qudHh3l5s3bk9dyrve6noW+qXP8A6lX511Ny5tt6pX4I50vWwGqtSYG5F3B59mNiuKebFVvEVUzEd6NpZFknGbizlE0fWziPqXC8yNoi3md2IiO9tuz7SnLE4/5BcomxrerGcyZnbH2YxET4+c2voXsi/EbL4ot6n0nlOc/47tu5OHqjxU007N5cM+yC8Jc8uW8LqXLs20/eq93eu26bmHjxTTM1fsdEcOuK3DrXmCpxOk9YZXmNNfRTRRfim5P+irar9jMYid48HfXAABLhzsj/ACmeLHB7jlgNMaHzTL8Nl2IyS1i7lGIy+3fqm7Vcu0zMVVdO21NPQ59nl58ouJ2nP8m8jWfQp6/TlF+/+TeRrPoPX6cov3/ybyNZ9B6/TlF+/wDk3kaz6D1+nKL9/wDJvI1n0Hr9OUX7/wCTeRrPoPX6cov3/wAm8jWfQev05Rfv/k3kaz6D1+nKL9/8m8jWfQev05Rfv/k3kaz6D1+nKL9/8m8jWfQev05Rfv8A5N5Gs+g9fpyi/f8AybyNZ9B6/TlF+/8Ak3kaz6D1+nKL9/8AJvI1n0Hr9OUX7/5N5Gs+g9fpyi/f/JvI1n0Hr9OUX7/5N5Gs+g9fpyi/f/JvI1n0Hr9OUX7/AOTeRrPoPX6cov3/AMm8jWfQevz5Rfv/AJN5Gs+hX1+PKLjp+v8Ak3R/5LZ9CVDQmOxGZ6IybMsZVTViMZl1i/emmnaJrrt01VTEdzpmXqgAAAAAAAAAAAAAAAAAAAAAABPU0D2RTi7Twp5PmP8AqPERTnWfROAy+mJjnU86J59cx3opiY378wiBvV13LtVy5VVXXVMzVVVO8zPfmVs9IAAAAAAmK7Gv2k+hvyW//E3W9BSrr8Ln/lJan+umpqclw1zfDZd7uaZ6Krk9f5o2a07sz3wAVo93HjhHFr37uc6+McR5yp5IAAANqciDtu+Hfyiw3001QAAADRHZL4j1k2t/xGG/irSHmZmeuVAAfWiqqiumumqaK6Z3iqJ2mJ7kwlk7Glxxo4qcG7WRZtiKatRaat04bEU7+2vWYiIoufm2pnww6UpmZjp2+ZUAAAAJ6pcNdl044xlGnLXCDT+L/wB8zKmL+c126+m3Y/u2uj/FtO8T3Nkc8z0qAAut/bKfHCcXk5xH2BtKfFNn9zNwAAFJnpYzxi1rlfDzhpnGsc4uxRhcqwtV6Y3jeuYjopjvzM9xCbxc1jmmv+I+cawzi7NeLzXFV36436KImd4pjvRDGgAViZiNoepovPsw0zq3LtQZZertYvLcTTfs10ztMTTO/wC3q+dNdycuImXcUuEGS6xwF23XVjMNT9V26J39SvxG1ynwbVbs7AAABSepTp26evxNO8ovlM8L+D2Grs55nNGNzeIn1PKsFVFy9Mx3Ktuij/Vs4U498u/inrSu9gNIU2tK5XXvT/Y0xXiLlP8AzVzvzZ/y7OYdTZ9nWocwnHZ7m2NzLE1b73sXiKrtf56pl526vOnvybztspvJubgK7z31Fd5N5fpyfM8xynH0Y7K8ficFibfTRew12q3XT4ppmJdGcB+W1xg0BVYweb46jU+VW5iJw+Y9NyI7sxdj20z45d28nLlbcKuLFNnA2s0jIs7riIqy3M6otzM/8lfuat+5ETu3zFW+0xO8T0q0zMqgAi97M50cqLKZjo/92LHn77kMAAAAAABWZnbr607/AAs+9jpz4nwvmaHvAAAAAAAAAAAAAAAAAAAAAAAErL123atV3LlXNpopmqqZ7kR0yiC7IjxfucV+UBjvqLEzXkeQzVgsvppnemqInaq5H+aY3aBnrkAAAAAAExXY1+0n0N+S3/4m63opM9e0Me4o6ho03pDFY/ePV5pmixG/XXPV+br+Zyxib1zEYiu/ermq5dqmuqZ65mZ6VgAK0e7jxwji1793OdfGOI85U8kAAAG1ORB23fDv5RYb6aaoAAABonsl3aTa3/EYb+KtId5AAV53Tu2byS+LGY8HOM+V6sw1dz6i9UizmVmnqvYeroq6O7MRMzHhhM9pPPMv1FprA55lOIoxGCzCxTfsXKKt4qpmN+vwdT0YmJ6lQAAAUmdo3Ybx+4i5Rws4U5vrPOLtFNvL8PM2LdU7er3p6KKI8dUxCFTidq/N9da+zXVmd4iu/jc0xFV65VXO/NieqmPBEbR8zH56wAF1v7ZT44TjcnL7w2lPiqz+5mwAAClXi3R79mK4yUYnG4DhFkuLiqjDTGMzj1OreOf1W7c7d2PbTMT34cGc6NumO5stAAVp910O0OxB8YI03xGxfDHN8VzMu1BE3sBz52i3iaY3mN56ommJ6O+ks3VAAAUqmIjeeqHmat1BkumdP4jO8/zLD5dl+Eo597E4iuKaKI8Myju5YnLnznUN/F6U4R3K8syj21q7m1dP+8YiOqfU9/cU+PefC4uzLH4zMMbcxmOxN7E4i7Vzrl69cmuuqe/Mz0y+G/RtsVTuoAAAAROysT4N19m/ds36L1m5XauW5iaK6KpiqmY7sT1w605HnLY1Vw/u4bTfEO5iM/03G1ujEVTvicFHfif79Md6enwpKOHWsNO640nhdR6WzOzmOXYuiKrd2zXExE92me9Md2Hu86Odtv0qgCL3szvbQ5T8mLHn77kMAAAAAACOtWrqhO/ws+9jpz4nwvmaHvAAAAAAAAAAAAAAAAAAAAAAAKVdTnTsk/GK3ws4C4nA5fivUs+1HTXg8BTFXtqKNvb3P9O8R/qRI3a5qqmqaudM9MzPW+YAAAAAAJiuxr9pPob8lv8A8Tdb0Unr3c88ovVEZxqinKsLd3wuXzNNXNnoqud383U11vOwACtHu48cI4te/dznXxjiPOVPJAAABtTkQdt3w7+UWG+mmqAAAAaJ7Jd2k2t/xGG/irSHeQABfTVEUbd1IT2Ibjj9WZff4PagxserYWJxGSVXKumqjrrtR4uuP8zvCI22hcAAAEzstuVbR0bTt17yi/7K5xwjXHE2jh7kGLmrJNNVzGJqoq3pxGK/vT4qYnm7d+HIYAAut/bKfHCcbk5feG0p8VWf3M2AAA3jfZiPHPXWWcN+Fec6zzWun1HLMLXcotzVtN65t7W3HhmehCXxJ1PmWs9cZnqnOL9V7HZriq796uruzM9H7NnhgRG4ArTtv09T9+m82xuR5/gs5y2/VZxmBv0X7FymdubXTVFUT+eE0/JV4l4LixwQyXV2FuRN+9Yi1jre/trd+n2tUT3t5jneKYbHjqAABSao323eBxL1hpzQmjcbqnVGY2sDlmAtzXdu1z7rvU0x3apnoiETfLT5S2peN+q7mHsXb+XaUwlyYwOW017RciJ+23O/VP7I2juNDzVv/wB4WgAAbSAAAuiraG6ORxyh9S8DNcU4jDXLmO0/ja6acyyyquebXT/jo/w1x0pbuE2udN8RNDYHVmlcfbxeXY63zqaqfdUVd2iqO5VE7xMMliYnqlUBF72Z3tocp+TFjz99yGArMT3u5uptJtJtJtJtJtJtJtJtJtJtJtJtJtJtJtKsRKsxO26d7hZ97HTnxPhfM0PeAAAAAAAAAAAAAAAAAAAAAAAfPFXKLVmq7cqppoopmqqqqdoiI7u6HfsgPFu5xa5QOZY7CYmq5kuU1TgsspifazRTM717dyap6/FDRoAAAAAACYrsa/aT6G/Jb/8AE3W9GM8WNRW9M6NxWN50er3KfUrFPdmuf/1u5bvXLl69Vdu1TVXXPOqqnrmZ61oACtHu48cI4te/dznXxjiPOVPJAAABtTkQdt3w7+UWG+mmqAAAAaJ7Jd2k2t/xGG/irSHeQAAe1w91Lm2jtaZbqbI8VVhsflmIov2Lkdyqmd9p8Cafk28S8q4scI8p1llVVMfVdqIxVmJ3mxeiI59FXhZ6AAAKT19bQ3ZA+NVng9wPxd3BXqPr/ncVYPLbcz7annRPOueKI36e/MIgsdiL+KxN3E4m9Xeu365uXLlc71V1TO8zM9+ZfAAAXW/tlPjhONycvvDaU+KrP7mbAAAtq2j5pRz9mC4wzmuqsDwmyXF/7plm2JzSKKuiu/PTTRP+WIir53DlW/e61AVpjdlGB0BqjGcLMdxAw+XV15FgMbRg72J26q6oqmJ8Uc3afDMMWAI63X/YluMdWjeLFzh5nOMmjJ9TVR9TRXV7WzittqZ8dftaUn8AAA/NmWLwuCwV/GYy9RZw+Gom5euVztTRTEbzMyid7IbyisZxk4gXciyPEXLekckv1UYOjnbRjLkbxN6Y709PN37kubq428S0AB9sFhsTirvqOFw92/cnqotUTVP5oe/lHD/XWZ1xRgNH55f50bxNOX3dp+fm7MnwfADjLifU4s8PM5mbvud7URE+Peeh6U8mHj1RFVU8Nc2iKY6dqrf8zx8XwH4wYSiu5f4fZ1TFHXtY3/cxrNNDa0y65XTjtJ53h+ZO01XMvuxEfPzdnhYmxew92bV+1XauU9dFdM0zHzS+YAC61tzul0r2OflA4vhHxPtafzvFV1aVz67TZxFFdXRhbkz7W7Edzp6J8EzKWHDXrWIwlvEWLlNy1epiu3XT0xVTMbxMeDZ9gEXvZne2hyn5MWPP33IYC/fp/fv07yynKuGfEDNMus4/LtH5xisLiKIrtXrWDrqorpnqmJiOmH6PsScTvwEz39Rr9B9iTid+Ame/qNfoPsScTvwEz39Rr9B9iTid+Ame/qNfoPsScTvwEz39Rr9B9iTid+Ame/qNfoPsScTvwEz39Rr9B9iTid+Ame/qNfoPsScTvwEz39Rr9B9iTid+Ame/qNfoPsScTvwEz39Rr9B9iTid+Ame/qNfoPsScTvwEz39Rr9B9iTid+Ame/qNfoPsScTvwEz39Rr9BHCPid+Ame/qNfoV+xLxMiZiNC59HR0/7jX6E13DS1dscOdP2L1FVu5aynDUV0VRtNNUWqYmJe2AAAAAAAAAAAAAAAAAAAAAACk9bmXsn/GKvhpwKu5JlOM9SzzU81YSzzZ9tas7f2lXfjononvonrlU1VTVVMzVVO9Uz3ZWgAAAAAAJiuxr9pPob8lv/wATdbymejwfuc68oLVFWeauqy+xd3weW70REdVdfdlr8AAVo93HjhHFr37uc6+McR5yp5IAAANqciDtu+Hfyiw3001QAAADRPZLu0m1v+Iw38VaQ7yAACtMzv0OrOxaccZ4dcVv9i88xtVGn9S1xbp58+0sYn+5V4IneYnv9CU+J3hcAAA/JnOPwmWZdfzDHX6LOGwtqq7duV1bU0UxG8zMyhx5cXGXGcZuNuOzmi7XGS4CurC5RZneIpsxO3P279W0TLTQAALrf2ynxwnG5OX3htKfFVn9zNgAAYLyjeIuXcK+D2d61zCumPqDDT9TW6p+23qva26du7HOmN/BuhR13qDMdV6wzHUmbX6r2NzTEVYi9VM79NU9XiiNojxPJAfu01lWNzzP8Jk+XWK72Lxt6mzZt0RvNVVU7bRCYbh1wB0/k/JHjg/jMNbuU4zLpjG3Nvd4mqIqmvf/ADxEojeKekMy0JxCzfSOb2qqMXlWLrsVTVG3PimZiK48ExtMeNjoD9uSZhjMpzTDZnl1+uxi8Hepv4e7R7q3XTO8VR4phM3yO+KmF4vcC8o1RTXTGOot/U2ZWaZ39Tv0RG/54mJ+dtWmd4VAAcYdlt433dJ6KscMNP4yq3mefUc/Ma7dW1VjDf4fBNc7fNTKNGpQBWnql9cNYuYjEUWLFqu7duVRTRRbpmaqpnuRHfdIcBORNxc4h2rGY5ng7Wl8puxFUYjMd4u3I7u1qPbRPjh15wp5A/BrTdm3c1HGYanxUbVTVib02bdNXgptzG8eNvnR/CXhppixTbyTQ2Q4WaI2puU4C3Nz/rmOd+1l+GsWcPZi1h7VFq3T1UUUxTEfND6A+OOwuGxln1HFYe1ftz10XaIqpn5pYXq/g7wt1RYrt5zoPIcRNz3VynAW6Lk/66Yir9rQfFjkAcI9RUXL2lsRmGmcTO9VNNm7N61VV/zRXvMR4nIfH/kYcXOG1u9mOEwNOpMosxNVWLyymaq6I8Nv3XV3YjZzvXart3a7dymq3XRMxXTVTMTTPemO4trjo3228C0BWmZireJ2mErfYtOMF7iLwNjTmdYuLudaWmMNXNdXt7tjb+zrmO9ETFPzOogEXvZne2hyn5MWPP33IYCvoTT8h7tUdDfE1j6ENrAAAAAAAAAAAAAAAAAAAAAAAAAAAAA/PmGKw+Dwl7FYq7TZsWLc3Lt2udqaKaY3mZnuREQhx5eHFq7xb5QOaZvh7tVWUZdVOCyyiZ6ItUTO9Xz1TVO/e2aX3AAAAAAAExXY2O0m0N+S4j+Jutk8XtS29NaNxOJ50fVN+PUsPTv7qqe74ocwXa67lya7lU1V1TvNU9crQABWj3ceOEcWvfu5zr4xxHnKnkgAAA2pyIO274d/KLDfTTVAAAANE9ku7SbW/wCIw38VaQ7yArTET1kxtG+8fnUAidn0wt67YxNu9Yrqt3bdUVUV0z00zHTEwl07HNxtt8XOCdjC5lfidQ6epowmPiqfbXoiPa3fDzojefDLoYAAFszPNnvx4HF3Za+Oc6Z0Za4VZBiZozTPLfqmZ1W6umxhu5T4653/AOlGtcmJ6e/+xaCtMbzsVU7R17qALrf2ynxwnG5OX3htKfFVn9zNgABbMz3I37yNXsvXGWNSa9wnC7JcTNWAyGqL2Y1UVdF3E1R0R4qYnaY78OLq/dKArTEbTvv4NnY/YieD86o4n4niTm2F5+W6c2pwXPp6LmKnpiY/yRH/AOUJNJ6J6NvEj97MZwimjE5dxcybCe0uc3B5vNFPd6rdyfzU0uBZAXRVMOrOxU8Zv9gOMn+xmbYiacm1VVTZpmqraixiI9xV4IneYnxQlOt93pid56Nu8uAB+HUea4TJMhxmb4+9RZwuCsVXr1yudopppjffdCTykeImY8UeM2eayzC5VP1diavqe3M9FmzEzzKI8EQwWemQFaY37vSyzg1w71TxN1zhNKaSwFeLx2Lq2qqiPaWaO7XXPcpiO6lI5I/JL0FwgyyzmGZYWzn2prlMVXcdiaIqoszt002qZ6IjwzvPhdEbRtEdyDaN91Y6AAmNzaFNlKqKaomKo3iY2mJ6phzLyxeR9ozipleIzvS+Fw+Raqppmqi9Zpiizi56Z5tymOiPHGyL3iTo/UOhNX43S+qMuu4HMsDXzLtq5HRPeqpnuxPcnuvBiI7s7LQI6JdD9jL4iXNCcqLKcPevc3Aai/8AZ2Jo393VV0Wv/wA5pS7gIvezO9tDlPyYsefvuQwFfQmn5D3ao6G+JrH0IbWAAAAAAAAAAAAAAAAAAAAAAAAAAAAFN4/M5b7Klxfjh9wNq0vleIijOdV74enm1e2tYf8A8SqY71URNPzoqK53WgAAAAAACYrsbM83kT6G3j/4XEfxN14HH3U31+1nVhrF3n4TLom3b2nomr+9VH7PzMGjqAABWj3ceOEcWvfu5zr4xxHnKnkgAAA2pyIO274d/KLDfTTVAAAANE9ku7SbW/4jDfxVpDvICtM7M64acMs41xw41lqfJqZu1aPs4fE4nD0071V2rlVcVV/6Yo3+dgsxMTtMdKgK09bbXIy4v43g1xuy/Udu7V9a8TVGFzWzv0XLFUxvP+mdqvmTLaezXAZ1kWDzfLL9N/B46xRfw92nqroqiJifzS/bE7x0AADE+NWu8n4a8M831lnl2mnDZbh6rkUTVtN6uI9rRT4ZnohCvxj1znHEXiVmur8+v1XsVmWIqubTPRRRv7WiO9EQxaraYUDZ9sHYu4jEW8PYt1XL12uKLdFMbzXVM7RER42XccOH2acNNT4bT+cXInG3cvsYu9biNvUvVbdNyKJ8MRVET4WFgLrf2ynxwnG5OX3htKfFVn9zNgACeprzlP8AEjAcKuCud6vxt2mLuFw80YO3v7a7eq6KYp78xPT4olCrqnOcdqHUeOz3Nb1V/G5jia8RiLk/3q66pqmfzy8+Z3UB6ekskzDUeo8BkOVWJvY7MsRRh8Nbj+9XVVtH7ZTT8lzhngeFHBLJtHYSmmL2HsRcxt2mNpu36o9tVP7I+ZsLadu4xrjDorLeIPDTOdH5tbpuYfNcLXa3qjfmV7e0rj/LVtPzISeKmkcz0LxDzfSWbWarWKyrFV2aoqjbnRE+1q+enafnY9PQA++AxV7B4yzi8PXVbvWLkV264naaZid4TK8h3i7h+MHAXLM9uX4rzfB0U4XNqO7F6mNpr27kVbTMNwxMb7b9KoBPU5q7Kfr7/Y3kt5hleGvczGaluxgKKd9pm1P2yYnwRsiWnrAHpaTyXM9SahwWQ5PhasTjswxFNnD2qY3mqqqdo+ZMFyK+AuScEuGVjB0WLd7UGOt03c1xs0+2qrmI/s4nuU09Xj3boin2264AAAWzE87eJ6HMHZLeT9hOJ3DC/q7IcDH+1WQWpu0VW6fbYyxEe2tz35jrie5tKKaqKudNPNmKqd42nrfMB6Gls3xGRaky/OsJO2Iy7FW8TZnfb21FUVR+2E6vDzNqM80Hk2cW6+fGNwFm7NXfmaI3/bu9imd43VEXvZne2hyn5MWPP33IYCvoTT8h7tUdDfE1j6ENrAAAAAAAAAAAAAAAAAAAAAAAAAAAAD8uZ4vDZdluIzDG3Yt2MLaqu3a6p6KaaYmZn80Shp5a/FnFcX+PGaagm7zsswlyrCZZbieimxRO0VR/mmOd87UUqAAAAAAAEdaVrkh6njTXY9dF3LNe2LxeFxFqx09MTOJu71fNDGK6qq65qq91VO9U+FTrAABWj3ceOEcWvfu5zr4xxHnKnkgAAA2pyIO274d/KLDfTTVAAAANE9ku7SbW/wCIw38VaQ7yArHU7n7Chg8LmGccScDjbFu/h8Rl+Ct3bVynemuma70TEx3WheXVwZxXBjjdjctw1i59YsyqqxOU3qumPU5npo3/AMVO8b+OGkdgVjpldvG0Rukb7EdxznPdNXeEeocbNeOyymq9k9dyfbXrPXVb37s0+2nwREO36Pc9O0KgAIzuyz8cY1brujhdp7FxXlORV8/MK7dXRfxX+HvTFMbfPMuM7k71b9PzqAupjq6unvutOxX8CZ1/xL/2+z7BzXkOnLkVWIrp9ricT/djwxT0z44h4PZY+2/zbo/+Ew35vUqHM4C639sp8cJxuTl94bSnxVZ/czYAAnqRjdly4v8A+1fFSxw5ynF87K9Nb1YuKKt6bmKnonfw0e2j53HU9YA7T7EBwf8A9oeIGM4oZvhOdl+Qf2GX86nouYmY3men/DE0zE99JVT3VRH52Yzg/FrEZfxdyfDbU183BZxzKe7v7S5PhneKfmhwLX19CgLo9y6b7F1xh+xxx1o09mmL9TyPVO2Gvc+rai1fj7Xcn9tP+pK/RttG0xt4FwBPUjf7NTqv6s4k6Y0dRcmfrZga8bXTE9H9rPNj5/7OXEM9YA7g7DnwlozfV+ZcVM1w8V2Ml/3XLIqp6fVqo9tcjwRTzo8cpHKN9ulcAAAAsv26L1mq1cpiqiumaaonuxPXCGnlzcPK+H/Kc1NkeFw136kvYn6tw8U255tNF7+0imJjuRFWzUH1Hi/+Fvfo5PqPF/8AC3v0cn1Hi/8Ahb36OT6jxf8Awt79HJ9R4v8A4W9+jlM5yEcyu5rySNDYzEzPq1WWc25E9cTTcrjafmiG3IBF72Z3tocp+TFjz99yGAr6E03Ie7VHQ3xNY+hDa4AAAAAAAAAAAAAAAAAAAAAAAAAAAA5P7K5xhjQnBaNF5Vi/U851T/ZVcyrau1ho6a6vBvPNp8UyixnrAAAAAAABWHf3JmzjE5hyZtF5fcnm2cuwl6i3T35nEXJmf27MzAAAVo93HjhHFr37uc6+McR5yp5IAAANqciDtu+Hfyiw3001QAAADRPZLu0m1v8AiMN/FWkO8gKx1O7uwe/dRxC/IsD9O86j5dfBjC8ZeCWMy2xZpnPMspqxWUXZjquRHTRM96qP2xCHjNMHisuzG/gMbYrs4jDXarV63XG1VFVM7TTPemJfknrAZJwr1hm+gdfZVq7Ir1VrGZXiKb1HNq258RPtqJ8FUbxPglNPwE4h5NxR4V5TrPJrtNVrH2Im9Rv02bsdFVFUdyd/2TDMqf8A/qoBPU0ly6eM+G4N8D8fmlm9TOdZlTODyqzztqpuVRtNz/REzV8yHjNMbicxzHEY7G3qruIxVyq7duVdM11TO8z+eX5qutQGR8K9HZxr3X2VaSyOxVexuaYmmzbiI35sTPTVPeiITUcAOHeT8LOFOU6Lya3RFrL7EReu0xtN+7t7e5PhmelGZ2WTtwc2/I8N5qlzOAut/bKfHCcbk5feG0p8VWf3M2ABSpq/lecUMJwj4F5xqy5XRGNptTYy63M9N2/XE82NvmmUMGe5njs4zrE5rmOIrxGLxl6q9fu3J3quV1TvNU/O/CA9PSmS47UWpsBkOV2aruNzHE0YexRHTvVVVFMfNvKazk1cOcBwr4M5Ho3A0RRXg8NFWKriOm5eq9tXMz3emZjxRDPqe6qMW4w6LyviFw1zjR2cURVhs1wtdnnTG/qdUxPNrjwxPTCErippLM9C8Q820nnFmq1i8qxVViume7ET0T88bMfAfXB3ruHxFF+xXVRdtVxXbqp66aoneJ/YmJ5APFu1xb5P2WY/E3oqzjKKKcDmVHO3q59EbU1z4a6Yir528ACUQnZPM7qzjlhajtzVzvrX6ngo8EUxzv8A/bnwBdTvNURETM9zbvpl+QVouzojkr6Ty6i3zbuNwVOYXp22qmu9Hqm0+LnbNyUd6O4qAAAApV1PFznSels5xk4zN9N5TmGInaPVsVgrd2uY729UTPQ/L9jzQX4E6d8l2f5T7HmgvwJ075Ls/wAp9jzQX4E6d8l2f5T7HmgvwJ075Ls/yn2PNBfgTp3yXZ/lezlGXZflWCowOWYLD4LDUfa7OHtU26KfFTHQ/XR1KiL3szvbQ5T8mLHn77kMB9KeuI238XcdYcIuXnrnh9w2yfRuA0Rp7F4bJ8JRhrV+/dvxXcimNomrarbfxMj9kl4i/B7pf9NiP5j2SXiL8Hul/wBNiP5j2SXiL8Hul/02I/mPZJeIvwe6X/TYj+Y9kl4i/B7pf9NiP5j2SXiL8Hul/wBNiP5j2SXiL8Hul/02I/mPZJeIvwe6X/TYj+Y9kl4i/B7pf9NiP5j2SXiL8Hul/wBNiP5j2SXiL8Hul/02I/mPZJeIvwe6X/TYj+Y9kl4i/B7pf9NiP5j2SXiL8Hul/wBNiP5j2SXiL8Hul/02I/mPZJeIvwe6X/TYj+Y9kh4jd3h9pfo/+9iP5kiujsxuZxpHKs2vW6bdzH4Gzia6KN+bTNdEVTEb9yN3pAAAAAAAAAAAAAAAAAAAAAAS/JnWY4XKspxOZY29RZw+EtVXbtdc7RTTEbzO6F3lfcUsVxc47Zzqyu5XOBqvTYy63VP2vD0TtR0dyZjbdq+qd5mVAAAAAAAAd28k7tfNOfirvna2xQAAFaPdx44Rxa9+7nOvjHEecqeSAAADanIg7bvh38osN9NNUAAAA0T2S7tJtb/iMN/FWkO8gKx1O7uwefdTxC/IsD9O8kO5sd5Gp2WjgXTpfWtvinp3BzTlWeXOZmdq1T7Wxidt+f4Iq2mZ8Li6etQFd5263X3Yn+OUaK4j18ONQYvmZJqO5H1LXcq9rh8V1RHir9rHzJPaJ36YnomOjZcCle+3Q+GPxVnB4G9jMVdot4exbquXblU7U00xG8zPgiIQ/cvrjRd4x8bcXicJfqnIMnqqweV0RVvTVTTO03PDzp3mJ70w0VvIC/aNo2jr6vCkg7EjwLp0/pS5xZ1DhIjMs3o9Tyii5R02cP3bn+udtu9zXbVPdRNdlk7cHNvyPDeapczgLrf2ynxwnG5OX3htKfFVn9zNgAUr6unqRb9lf4zf7dcXKNCZRiOdlGlaqqLs0Vb038TO3OnwxERG3jlyXvPfUAh2p2ILhB/tFxCxnE/N8LzsBkETZy/n09FzEVRtNXhiKZn50lMdSsREdXdA2hH32Y3g7FvEZfxdyfC+1ubYLN+ZT1T0zbrnx+2iZ8EOBqoiI3hQF1Hd8TorsafF+vhfx9wmBzDE1UZJqSYwWMpmr2tFdU/2de3f53NjfvTKW+3Vz6Iqpq50VdMTHVMLwJ6kKvLZxlWP5V2usXVXFc3c3r9tHd2ppj/s1WA9LSOHpxWq8rwtXTF/G2aJ+e5TH/dO5pTLacn0xl+U0REU4HC27ERHcimmI/7PQ2gAHyx2It4TBXsVemYt2LdVyuYjedojeej5nNuM5d3J6w2Ku4e9nedxctVTRVH1mu9Ex0Ssjl68nbb/APm878jXT1+vJ29+878jXT1+vJ29+878jXT1+vJ29+878jXT1+vJ29+878jXT1+vJ29+878jXT1+vJ29+878jXVPX6cnX36zryNdV9frydvfvO/I109frydvfvO/I109frydvfvO/I109frydvfvO/I109frydvfvO/I11vLhLrzT/EnQmB1hpW7fv5Xj4mqxXfsTarmInafaz0x0wyenq6VRF72Z3tocp+TFjz99yGArEzHVKkzMzvIAAAABHWrM9Cd/hZ97HTnxPhfM0PeAAAAAAAAAAAAAAAAAAAAABSrqcg9lp4zxo7hRa4eZPiObmuqImMVNFftrGFp91Ex3OdMxtP/ACyjCqq37kQtAAAAAAAAd28k7tfdOfirvna2xQAAFaPdx44Rxa9+7nOvjHEecqeSAAADanIg7bvh38osN9NNUAAAA0T2S7tJtb/iMN/FWkO8gKx1O7uwd/dTxC/IsD9O8kPYxxf0Rk3EThvm2js+sU3cHmmHm3VvG/Mq66ao8MVRE/MhX46cPs54Y8UM20bnlqqi/l1+abde3Rdtz00Vx46ZiWI1UzT1qA+2Bv38LibeKw1yq3ds1xXRXTO00zE7xMSmC5AHGixxh4H4TFYzEU1Z/k9FOEzWiZ9tXXEdFzbvVbT+aW9ecqLa5iOmXH3ZYOOEaK4c0cOcgxcUZzqGj/e5oq9th8NHX4pqnm/NujGirbqhaBHW3JyIeDOM40cbMDkldq59ZcDVTic3vRG0U2on3G/cmraYhMfkmXYLKsqw2XZfYosYXCWotWbdEbRRTEbREP1xCJnssnbg5t+R4bzVLmcBdb+2U+OE43Jy+8NpT4qs/uZsAKTOzU/LR4s4Xg/wKzXUXq9NGaX7VWGyuiZ6ar9UbUzt3YpmYmUMea4vEZhmN/HYu5Vcv4q5Vdu11TvNVUzvMvzAR0vS0nkmP1FqfAZFllmq7i8wxFFizRTG8zNU7f8A7+ZNbyaOHWX8KuDGSaLwNFMXMFh4nF1U/wDi4ir21yr/AKpnZn0dSoDGOMWjsr4gcNs40fnFqLmFzTC12Z3j3NUx0THhiUJPFTSeaaF4gZtpLOLM28ZlWKrsV7xtzubMxEx4JY8CsTsvsXblF+3ctVTTcoqiqiqJ2mmd94mPnS89jm4wRxW4BYOnMcRTXnuQbYHHxv7auKYjmV7d6aZpjfvxLoEFKvcyg/5T0zPKD1fNW+85rd6/GwIBlHBi1axHFrTdm9TFdurNbETTV1T7eE60dQADz9W/cpmf5Fe+hKCHVPRqXH+DFXPpS8+QAAAEwHYz4ieRxpTuf2Vzf9JU39G+3SCL3szvbQ5T8mLHn77kMAAAAAACOtWrqhO/ws+9jpz4nwvmaHvAAAAAAAAAAAAAAAAAAAAABM7Px5/mmBybJMVm2Y4ijD4TBWar1+7XO1NFFMbzM+BCtyr+JuO4tccM61fiKq4w129NnAWqp39Rw9MzFFMftn52tgAAAiJnqNpAAAAHdvJO7X3Tn4q752tsUAABWjprj/NCOLX33c518Y4jzlTyQAAAbU5EHbd8O/lFhvppqgAAAGieyXdpNrf8Rhv4q0h3kBWOp3d2Dv7qeIX5Fgfp3kh63wbOQeyvcC41tw6p4j6fwU1Z3p23P1ZTap9ticLvvO/+Xeat+9GyMO5vvtMT0d9aCvRzW5+QzxjxPBzjjl+bXL1ycnzGYwma2Ynom3VMe3iP8VM/vlMXlOOwmY4CxjsFiKMRhsVai7Zu253puUzG8TE97Z+s3hjvFfWGT6C4e5rq/PMRTZwOVYaq9cqmeuY6oiO7MyhU478Qc44ocUc21pnd2qrEZhembdE1b+o249xbjwUx0MOAiH3y/CYnHY+xgsJZrvX8Rcpt2rdEb1V1TO0REd+ZlMByAeCljg3wSwtjG2Lc6gzmmMXmlyI6aJmPa24nr2iNujvzLe1MbRsqiZ7LJ24ObfkeG81S5nAXW/tlPjhONycvvDaU+KrP7mbACk9fR+1FT2VHjDTxA44TpbK8VNzJtK72KJonei7iJ93XHzTFP+lyzM+FQFaPdO0uxBcH/wDaHiDi+KOb4XnYDIP7HLufT0V4mreOfHf5tPOj/VCSnadp/wDWytPUqAtqid94R+dmN4PTbxOX8Xcnwvtbm2CzfmU93b+zuT4NomJnvzDgbaQFaJ2qhvrsePGK7wl4/YKrF3ubkmfVUYHMqaqtqaIqnai5P+WZ3TAWLtu9YovWq4qt3KYqoqjqmJjeJXhPVKFXlsYWrB8q3XWGrs+pTRm9e9H+H2tM/wDdqsB6+gb31PrnJr/OmmLWY2Kt46NtrlKeDLcTbxmX2MXa9xftxXT09yY3fcAHn6t+5XM/yK99CUEOqvukzD8qufSl54AAACYHsZ3acaU/F3POVN+gi97M720OU/Jix5++5DAViJnqhSYmJ2kAAAAAjrVmOhO/ws+9jpz4nwvmaHvAAAAAAAAAAAAAAAAAAAAAClXXt3XGnZd+MFeluHGF4a5Ni5t5jqKPVMdzKtqqMLHRtPgrmKo+ZGhPX0dxYAAAK0dbLNcaEzbTHD/Sup8ypm3a1XbxN7C26o2nmWq6aYq8VXO3hiQAAADu3kndr7pz8Vd87W2KAAA/Zp7L7+bZ5hctw1E1XMRepoo27m89M/Mje4oWKsJxL1DhKqudOHzfFW5nvzF6uHhAAAA2pyIO274d/KLDfTTVAAAANE9ku7SbW/4jDfxVpDvICsdTu7sHf3U8QvyLA/TvJDx8MfYs4rC3cLibVF2xfom3ct107xXTPRMTHemEQXZBeCd/g7xrxNGCtVTp/O66sXllzb2tMTPtrcz34nefFMNDKArRO07pLuxLccI1VoW7wu1DjKas2yCiK8tqrq2qv4bfbmx35o3iIjr2dnra+v8A9dCOPsuXHKrOtU2uEmQ4r/ccqqi9m1y3c+23+qLU7f4enePDDiCerdQF1HW7F7E9wNjWXECviZn+D9UybT13bBUXafa38VtvEx34p69+/CTTpid10TvG6qJnssnbg5t+R4bzVLmcBdb+2U+OE43Jy+8NpT4qs/uZsANLcvHi1Z4RcAM0zeze5mbZjROByuiJ2qm7XG01x4aaZmr5kOOY4i/i8ZdxeKuVXb+IuVXbtyqemuqqd5mfDvL4ALrfN9Ujnb83fp27zv8A5OfLI4K8JuD2TaJy7TWe1fUFmJxN2PU/7e9Me3udfdnpZ37Inwm/BzUH/Tb9J7Inwm/BzUH/AE2/SeyJ8Jvwc1B/02/SeyJ8Jvwc1B/02/SeyJ8Jvwc1B/02/SeyJ8Jvwc1B/wBNv0nsifCb8HNQf9Nv0sa4wcuDgnxC4a5xo/N9L59cwua4Wq1VM02/aVddNUdPcqiEd2Ji1F2v1Cqqq3FcxTNXXMdzd8QI630omYmJpnp360tPY0eMkcUOBWHyrM8R6pn2maacLjOdXvVdt7e0uz49pj/S6RgJRCdk8ySrJ+WFqO5NPN+unqeNjwxVHN//AMOfAH1w1yqzet3qOiq3VFVPT3YndNryTtT4fV3Jz0hnVi76pVXlNi1fq/8Au0URTX/+US2IADz9W/crmf5Fe+hKCHVX3SZh+VXPpS88AAABMD2M7tONKfi7nnKm/QRe9md7aHKfkxY8/fchgPpT1xO+3i7rrDhFyDNc8QeG2T6ywGt9PYTDZxhKMTasX7V+a7cVRvEVbU7b+JkfsbXEX4QtL/ocR/KextcRfhC0v+hxH8p7G1xF+ELS/wChxH8p7G1xF+ELS/6HEfynsbXEX4QtL/ocR/KextcRfhC0v+hxH8p7G1xF+ELS/wChxH8p7G1xF+ELS/6HEfynsbXEX4QtL/ocR/KextcRfhC0v+hxH8p7G1xF+ELS/wChxH8p7G1xF+ELS/6HEfynsbXEX4QtL/ocR/KextcRfhC0v+hxH8p7G1xF+ELS/wChxH8p7G1xF+ELS/6HEfynsb3Ebu8QdL9P/wBnEfypFdHZdcyfSOVZTeuU3LmAwNnDV10b82qaKIpmY37k7PSAAAAAAAAAAAAAAAAAAAAAHmaxzvL9NaXzDUGbX4sYLLcNXiL9yZ6qaKZqn5+hCtyoOJOP4r8aM61ljK6vU8VfmjCWpneLNmnoppjwT1+OZa93kAAAGe8mfhtmfFfjJlGjcsomfqq7FeJubdFmzTMc+ufFvH53TfZj8jy/TOL4X6fymxTYwOW5NisPYtxHuaaa7UQ4nAAAAd28k7tfdOfirvna2xQAAG3+THpebmLuanxVvaije3hd+7P96r98Ik+M334NV/HuN8/WxoAAAG1ORB23fDv5RYb6aaoAAABonsl3aTa3/EYb+KtId5AVjqd3dg7+6niF+RYH6d5IeDUHLW4NYHjRwVx2Q+pW6c4wlFWIynEVdE270Rvzd/8ADVtEShtz7LcblGb4rK8xw9zD4vBXarV+1cp2qoqidp6H4gVp62VcGNdZvw34l5TrLJb1VGKyzEU3NqZ2i5R1VUT46ZmE1HBvXOU8SOGeUazyK7FzCZph4ubRP2u51V0T/lqiY+Zh3LP4wYPgzwRzHUVV2j664imcNlVmZ6bl+qOirbu007xMoatQ5jjM4znE5rmN+5iMXjLtV2/erq5011zO8zu/EC6npj927KODeh844j8Scp0fkdiu7isyxFNuZpjot0ddVc+CKYmU1HBTQeTcNuGuU6OyO1RThstsRRNcRtN65111z4Zq3n52WAiZ7LJ24ObfkeG81S5nAXW/tlPjhONycvvDaU+KrP7mbAPncqp5k1VVc2Ijpq70IneyccZK+JvHK/keXYjnZDpeqrCYeKJ3pu3ona5XPh53Opie85oq/eoAAAAAAN38gni3Xwh5QOXZpi71VGTZnMYLNKZn2sW6pjauY7s09O3jTFYO/axWFt4mxcpuWrtMV0V0zvFUT0xMPqI3uzUaVnB8TdM6wotbRmeArwdVfcmbM878/wDaOIp6wBI/2GribTmfD/NuGWNvx9U5PdnGYGiZ6ZsV1e3/APzqdu0RtM9K4AfnzXDRjcrxODmrmxiLNdqau9zqZjf9riLM+xzZDi8xv4urXuMp9XuVV7RYp6N537z4exu5B3Nf439BT6D2NzIfw/x36Cn0HsbmQ/h/jv0FPoPY3Mh/D/HfoKfQexuZD+H+O/QU+g9jcyH8P8d+gp9BPY3cgjr4gY3b8RT6HH3K74YZZwf4043Q2WZzXm1GBsWq7l+unb21dEVTT0d7dq4ATA9jO7TjSn4u55ypv0EXvZne2hyn5MWPP33IYCvoTTch7tUdDfE1j6ENrgAAAAAAAAAAAAAAAAAAAAAAAAAALapmN9o3cVdl+4wfWLQ2C4X5Piubjc82xGY8yfbW8PTV0U+CZqiPmRtVTvG2/RutAAAF1Mb7dHWkv7ELwdjTXDXE8TM4w3NzDUW1vAc+npt4an+9E/8APM9P+WGuezgz/wC+nD+P/L8b5y04UAAAAd28k7tfdOfirvna2xQAAfs0/l1/N85wuW4emZu4m5FEREdX/qN3WGl8qsZLkOFyzD0xFGGtxT0f3p26Z+eUG3Gb78Gq/j3G+frY0AAADanIg7bvh38osN9NNUAAAA0T2S7tJtb/AIjDfxVpDvICsdTu7sHf3U8QvyLA/TvJDwUr38HhRx9lu4EzkupKeLmncHtgM0r9Tzii3T0Wb89NNzb/AJunfvbQ4gqpjbr6e8tBWKp36HZvYnuO1rR2sr/DTU+YU2smzmZu4C9er2ow1+I6Y3nqirbbbvy1t2RPjbf4vca8Rh8uxNU6d0/XVhcvt77U3Kon292Y78z0eKmHPdXcUBfbiZidkmHYm+BMaT0HPFDUWDmnN9QWdsuouU7TYwszExV469qZjwOyoiFQRM9lk7cHNvyPDeapczgLrf2ynxwnG5OX3htKfFVn9zNgGieyB8YLHCPgHmGIw1+IzrOYnBZbbiemJqiedX4op36e/MIe8Tfu379d69cqruXKprrrq66pnrmVkzM9agAAAAAAvpnad95jw96UrfYteMH2QuBNvTWZ4mLmdaVinDXIqq9vcsbf2dXh6I6Z8Tp6iqZnqXOZOysaDnV/Jfxua4Wxz8Zpm9GOirbeabMRPqm3j2p/MicnokAZ1ycuJOa8J+LmU60yuqqfqK9H1TZiei/Znorpn5pnbw7JouFussk19oTLdWafxVu/gszsU3aJpq35kzHTRPhid4nxMgpqmZ22/wD0uAFNo33NvDKu3hNvCbeE28K2udu6xTjVr3JeGvDXNNYZ/iabWFy+xVVTT3ble3taIjuzMoUOK2rMw13xEznV2Z1VTic3xtzE1UzO/MiqqZimPBETtDHQBMD2M7tONKfi7nnKm/QRe9md7aHKfkxY8/fchgK+hNPyHu1R0N8TWPoQ2sAAAAAAAAAAAAAAAAAAAAAAAAAAA8fXWocv0ppDMtR5tfotYPLMNXiLtVU7REUx1eOZ2j50KHKG4h5nxR4uZzrPNLlddWPxFU4aiqftVmJ2t07eCmIYVVMTHV1rQAADZsnkocMcZxa44ZJo+xbr+pr96LuPuU/+Hh6J3rnfv7b7JptM5TgciyDB5Plliixg8FZps2bdunammmmNuiO4j67OF92vD/4vxvnLThUAAAB3byTu1905+Ku+drbFAAD5m5eTFpf2t7UuLt71R/Y4XeO53am5kE/Gb78Gq/j3G+frY0AAADanIg7bvh38osN9NNUAAAA0T2S7tJtb/iMN/FWkO8gKx1O7uwd/dTxC/IsD9O8kPBSY3eBxP0jlGudBZppTPbFOIwOaYeqzcoqjq36p8cTshZ5QfDjOOFPFbNtF5zbq5+BvT9T3Zp2i/Zmd6K48cbSweQF9q5Vbriuiqqiumd4qpnaYkrr51U1T7qeuZ6d/Csmd5BXZvDkF8FMVxk41YTBYm1VGQ5TXTis1vRExHMiei3E9+qf3SmFyvC4bA4Czg8HZps4exbi3at0RtTRTEbRER4n6AETPZZO3Bzb8jw3mqXM4C639sp8cJxuTl94bSnxVZ/czYJmIjeeqFly5RRbqrrqimmmJqqme5HfRF9kj4vTxR5QWLw+X4j1XI9NzVgcBzZ3prqidq7keCqaYlzzV1qAAAAAAArEtt8ijiriOEfHzKNReqV05dibkYPMrdM9FyxXMb/mqimfmTN5ZisNjsBZxuDu0XsPibdN2zco6q6ao3iY8ExL7z1PN1Rk+Ez7TmPybMLdN7DY/D12LtEx0TTVG2yEjlB6AzHhpxhzzRuYUVc7L8XXTZuVRtF61vPNrjwTDCpjYBdTVERt0+DwOhuQtym844JaooyrM6ruN0jj70fVmEmd5w0z0eq2+9Mdcx3Uq/DrV+mdcaVw2otK5th8yy7FUxXbu2a99t+5VHXTPgl701beHveFUAAU3g50Md4n630voDSeI1JqvN8PluAw1E1TXeq2mvbuUx1zPiRTcublMZvxz1VRhMBTfwGlMtrn6jwVVW1V+r/6l2I6JnvR3N577n+ao3naOtaAJgexndpxpT8Xc85U36CL3szvbQ5T8mLHn77kMBX0Jp+Q92qOhviax9CG1gAAAAAAAAAAAAAAAAAAAAAAAAAAHDXZheMtOV6ZwnCPJcVti8z5uJzfmT7izHTRbq/zTzav9KOeqelQAAAViOn9iTvsSPBuvR/C2/wAQ85wfqea6lnbCxXT028LT1dE9MTNXO8cbOwKer50dvZwvu14f/F+N85acKgAAAO7eSd2vunPxV3ztbYoAA/fpjKcTnefYbLMLEzcxFyKY2jqjuzPgdW6dyzD5PkmFyzC0c23hrcU07d3aOuX74QT8Zvvwar+Pcb5+tjQAAANqciDtu+Hfyiw3001QAAADRPZLu0m1v+Iw38VaQ7yArHU7u7B391PEL8iwP07yQ8BSr3M7OTeymcDZ4hcLI1tkOD5+faZt8+umin22Jwv9+nwzT0VdPcplFrMTEzHeUAAH6sqwWLzLMrGAwNi5exOKu027Nq3TM1V1TO0RER1ymL5DHBnDcGuCOCyq9ZpjOsyppxObXY2markx0Ub96nueOW56N95lcAiZ7LJ24ObfkeG81S5nAXW/tlPjhONycvvDaU+KrP7mbBLnnskPF6OFfJ/xlrL8T6lnmoYqwWA5tW1dETHt7kf5YmP+pEVcqmu5NdUzM1dMzM9ayQH2wGExWOxlvCYLDXsTfuzzbdqzRNddc96Ijpl708PdexO06J1D5Lvfyn2Pde/gTqHyXe/lPse69/AnUPku9/KfY917+BOofJd7+U+x7r38CdQ+S738p9j3Xv4E6h8l3v5T7HuvfwJ1D5Lvfyn2Pde/gTqHyXe/lPse69/AnUPku9/KfY917+BOofJd7+U+x7r38CdQ+S738p9j3Xv4E6h8l3v5T7HuvfwJ1D5LvfyvEzXL8flmOrwWZYLEYPE2+iuziLU266fHTMRMPzALqdojr6UpPYneMU654OV6JzjGzdznS0cy3Nyreu9hZn2k+KneKXWY4j7LzwUvag0thuLGQ4XnYzJqPUM2oop9tdw8+5uT3+bMbbf8yN6fEoArRtM9LY/J943cQODeoqMx0fnNdvD1Vb4jAXZ52HxEd2KqJ6In/mjpSA8nfl3cN9aUWct1vROlM2qiKZrr3rwt2rvU1xvNMf5tnUemM/yTUOXU47Is4wOZ4eYj+2weIpu0fnpmXpABupV1bb9Lw9aav0vpLL5xmp8/y7KbMUzVzsXiaLfO8UVT0z4nKnKD5fug9NWr+W8OsFc1LmURNNGLuUzbwturq6d9qqvHHQ4H458Yte8W9RVZrrPPb2LpiZmzhKZ5tix/loj2u/h23lgdXV19PdWgAmB7Gd2nGlPxdzzlTfoIvezO9tDlPyYsefvuQwFfQmn5D3ao6G+JrH0IbWAAAAAAAAAAAAAAAAAAAAAAAAAAB4XETUuWaM0Pmep83v02MDlWFrv3a6p6IiI6P27QhM45a6zLiVxVznWmbVVTezPFV3KKJq3izb3nm0R4IjoYlVG0qAAADaPJC4YYvi1x1yXStFqasFN+m9mVe3tabFE86qJnuc6I5seGU0eR4DCZVk2FyzA2otYbB2abNmiI2immmNoj80P1Sjr7OF92vD/4vxvnLThUAAAB3byTu1905+Ku+drbFAAOju9X/robr5MGmZow9/UuLt+3uTNvDbx3O7Pi6m4VO6gn4zffg1X8e43z9bGgAAAbU5EHbd8O/lFhvppqgAAAGieyXdpNrf8AEYb+KtId5AVjqd3dg7+6niF+RYH6d5IeApVtEdL54i1bxFmuxftxXbuUzRXRVG8VRMbTE+CYRH9kb4IXuEnGi/jssw006d1FXVisBVTT7W1XMzNdrwbTvMR3tnO9XWoAA7X7ElwNnUesbnFbUWD52WZLX6nllF2n2t7EbbzXHgp9rMT390k1uNqYidujvKgCJnssnbg5t+R4bzVLmcBdb+2U+OE43Jy+8NpT4qs/uZsLL9yi1ZquXKopppjeZmdohD52Qfi/e4tcfcfiMHiarmRZLVODyuiJ9pMRPtrkR36p2/NDQ4A7d7D/AMHac81fjeKedYOmvB5Pvh8si7TvFd+qNqqoieuIpmY8EpGqcJhJjf6ls/o4V+o8J/wtn9HB9R4T/hbP6OD6jwn/AAtn9HB9R4T/AIWz+jg+o8J/wtn9HB9R4T/hbP6OD6jwn/C2f0cH1HhP+Fs/o4PqPCf8LZ/RwfUeE/4Wz+jg+o8J/wALZ/RwfUeE/wCFs/o4cA9mJ4OU2LuXcW8kwcU26tsFm8W6Noieu3XMR396omfBDgeuFoEdDaHJC4p47hFxxyjVOHuzGCm7Th8ytTO1NyxXO1W/+XfneOE0OQ5jg83yfB5rgL0XsLjbFF+xXE+6oqiJifzS/a/FnmX4LNcqxOW5jYov4XGWarN61ciJpqpqjaY2lEVy8eT9mHBLiZcrwdi5c0vm9yq5lWJiPa29+mbNU9yqnp6O7EbtC1dFPUtABkWiddax0jiqL+mtS5nl1dE7004fE1RTH+nfmz+Zu/QnLh49adpt0YvPcJnlFvqpzHDRO8d6Zo5sto6b7I/q6imiM+0LlN6d/b/UVyu3Ex4OdVO0sty/slGRxZ/33hfmNdzfomzmdumNvFNEvv7JVpb4K848q2/5H5Mz7JPlNVMTl3DHHW5iJ53q+Y0VR+ymGG6m7I3r67FUZDozI8NEx0TivVLkx/01w1RrvlncfNSTcot6unKbF3oqsYCxRTTt3omqJqj87SuqNT6i1JiasRn2e5hmVyurnTOKxFdyInwRM7R8zx56wAATA9jO7TjSn4u55ypv0EXvZne2hyn5MWPP33IYC/bp/fv0bSynKuJnEDK8us4DLtYZxhcLh6IotWbWMrpoopjqiIieiH6Pst8Tvw7z39er9J9lvid+Hee/r1fpPst8Tvw7z39er9J9lvid+Hee/r1fpPst8Tvw7z39er9J9lvid+Hee/r1fpPst8Tvw7z39er9J9lvid+Hee/r1fpPst8Tvw7z39er9J9lvid+Hee/r1fpPst8Tvw7z39er9J9lvid+Hee/r1fpPst8Tvw7z39er9J9lvid+Hee/r1fpPst8Tvw7z39er9JHFzid+Hee/r1fpV+y1xMmZmNdZ9PR0/79X6U13DS7dv8OdP371dVy5dynDV111TvNVU2qZmZe2AAAAAAAAAAAAAAAAAAAAE9TgzswvGarB5fguEOS4qPVMXTGMzmqiemKOq3b8U+23jwQj1melSekAAAhdEdPVv4kpPYpODNGhOEE67zbCzRneqbfPp58dNrCxO9FMf5toq+d1lT7mFZR19nC+7Xh/8X43zlpwqAAAA7t5J3a+6c/FXfO1tigAePu9T09IZPiM+1HhMrw8b1X7kRVMf3ae7PzQ6syLAWMqyrD5dhaIptYe3FFMR1P2qd1BPxm+/Bqv49xvn62NAAAA2pyIO274d/KLDfTTVAAAANE9ku7SbW/4jDfxVpDvICsdTu7sHf3U8QvyLA/TvJDwBTaNttupqvlhcJMt4ycF8y0ziLdNOY2qJv5XfmOm3iKY3piJ7kVTERPglDNqfJ8wyDUONyTNcNXYxmAv1Wb9uuNppqpnaX4Ko6N/3KAEdbMuA/D7NuKHFXKNGZLZqm9mF+KbtcRvFm1HTXcnxU7ymm4S6Myjh7w6yvR+Q2ItYLLMPTaoiI91V11VT45mZZLT1KgCJnssnbg5t+R4bzVLmcBdb+2U+OE43Jy+8NpT4qs/uZspX1dcx4XNvZNOMtPDHgVfybLcRFOeaoorweG2q2qs25jau54Nononvol6qqq6qq6pmaqpmZme6sBWOt6uitP4/VGrMu07lVmq7jMyxNFizRTTvMzVO2+3gjefmTYcnjh9l/C7g/kui8Bbpp+oMNTGIrpj7bemN7lXz1TLN6epUAAAGMcYdGZZxB4bZxpDN7cXMLmmFrs1dHTTMx0THhiUJPFXSWaaE4hZtpLObM28ZlWKrsXOjoq2nbePBLHgFaUnHYkuM06w4aXuHGc4mK800zG+Eqrn217C1TvHjmmZqjxRDsUYjxq4d6Y4oaExektV4CjFYPF0TFNW3t7FfcronuTEojeVxwE1RwO17cy3M7NeJyXE1TVluZU0zzL1G/RTV3q47sNR7dfR1QtADc3Fd57/Wobm8iu87qCtPW+2Ew17E4i3hsPYuXr12qKaKKKd6qpnqiIdJ6v5KuZaG5GuZ8WNZTcwud3LuF+octjo9Qs3LtNPOuf8ANMTvs5lnrATA9jO7TjSn4u55ypv0EXvZne2hyn5MWPP33IYCszPf7mym8m8m8m8m8m8m8m8m8m8m8m8m8m8m8m8qxMqzM7bJ3uFn3sdOfE+F8zQ94AAAAAAAAAAAAAAAAAAABSqdoY/xS1hlOhOH+a6tz29FnA5Xhq79yZnpq2jeKY78z3kJfGTWuacQ+Jucawze7NeKzPFVXdpneKKZnopjwRHcYtIAAArT1795tnkYcKsXxb48ZNpymzVOX2LsYvMrsU7xbs0TE9Pjnm0/OmbyzAYXL8tw+AwdmmzhsLaps2bdMbRRRTG0RHiiIfopjaNlZR19nC+7Xh/8X43zlpwqAAAA7t5J3a+6c/FXfO1tigAeGOtu7kxaXmxgb2pMVb2uX97eG3j+73av+zbsU7d3qVU7qCfjN9+DVfx7jfP1saAAABtTkQdt3w7+UWG+mmqAAAAaJ7Jd2k2t/wARhv4q0h3kBWOp3d2Dv7qeIX5Fgfp3kh4AKTT4UenZduBX1DmNvjHp3Cf2GJqpsZ1Rbp9zc6qbs7d+Oie9zXB9Ue1699pWgrTG6sUz3OnxJPuxU8C50Jw5niHqHBRTnmorcThKblPtsLheun56uvfvS68inu/uViNo2VAETPZZO3Bzb8jw3mqXM4C639sp8cJxuTl94bSnxVZ/czZ8MxxFjB4O7jMVdps2MPbquXrlU7RRRTG8zPgiIQ58vTi3c4ucf8zzXD35ryjLZ+ossp36PU6ZneqPHVNU+LZpWat53UAh292H3g/9edaY7itnGF3wmTb4fKudHRXiKvdXKf8ALEVR/qSPRTG64AAABSaenfuuA+zFcGKPU8BxfyTC7V7xg84iiOuNv7O7PeiNpiZ79UOAJp2jfdaBHQ2LyWuJ2N4S8bcl1lhqq/qfC34oxtumftmHq6LkePm77Jp9LZ3gNQ6cwOeZXfov4PMLFN6zcpneKqao3elHTClUb93ZjfFPQmluIWjcVpnVuVWswy7FU7VUV0xzqJ7lVM/3Zjr3hGTyxORxrLhbi8Tn+k7V/UOlpmaufapmrEYSO5FyiOuO9Mb9XTs5eqommqqmqJiqmdpiY22W/OdwAAAFeb1eHqV5vR0yyPhfoLVfELVFjINIZLiszxt+qKebao9rR4aquqmPHKSzkT8jnT/CucNqrWkYfOdVRTzrdMU87D4GZj+5v11eHZnPZHMBVj+R/qyzTFHtLVu77eOiIprir/sh1kBMD2M7tONKfi7nnKm/QRe9md7aHKfkxY8/fchgAAAAAAR1q1dUJ3+Fn3sdOfE+F8zQ94AAAAAAAAAAAAAAAAAAABbX1dz53APZjOMMT9buEWT4rq2xubzRV0df9nbnwxtMzHemHAe8dzr762QAABdRTPOjanffoiEq/YruEH2P+BdGqs0w0W851XFOJqmqn21rD/8Ah09+N4mJmO/DqUJR19nC+7Xh/wDF+N85acKgAAAO7eSd2vunPxV3ztbYoAd7wvV0Vkt/UGp8JlNmJ3v1xz5j+7THTVP5t3V2UYOxgMtsYPDUxTasW4opiI26o2fpFO6gn4zffg1X8e43z9bGgAAAbU5EHbd8O/lFhvppqgAAAGiOyXzHrJtb/iMN/FWkPMxMdcKArS7v7B5ExqniFvH/AMHgfp3khwADx9f6aynWGjsx0znmGoxGAzPD12L1uqN+iqNt/BPhQtcprhhmvCTi9mujcyt1TThb014PETG0YmxM+0rj9rX80zHXCgrS372Pbgnd4w8bsN9X4WudP5HXGKzK5NM82vaY5trfq3mdp270Sl6wmGs4XDWsNhrVFqzZoii1bojamimI2iIjuREPsAAiZ7LJ24GbfkeG81S5nAXW/tlPjhOLyc5j7A2lPiqz+5m28OXuyn8YI4ecDK9MZXivU861VE4a3zKtq7WH/wDEr270xFVPzopaupaA9XROQZlqfV+XadymxVfxuZYmjD2LdHTNVVU9xNjyeuHuXcL+D+SaMy2ijbL8NTF+5EberXZiOfXPhmWcQAAAADHuKukss11w9zbSWcWaL2EzXCV2K6a46ImemmfmqiJ+ZCRxg0ZmnD7iRnGj83t104nKsVXZ51VO3qlMT7WuPBVTtMeNjIBHX0pKexB8Y6dQaBxPCzOcXvmORb3sti5V7a5hp66KY71Exv8A6nasdQT1PnctxXTNFVNNVNUbVRV0xMeFzTym+RZw34ner5tkFmjS2fXN5m/g6NrF6e5FdvqjwzTG7gzjzyUeMPC69cu43T1zOMspn2uPyuib1FUd+aI3qpjxxDSN63ctXard2iqiuidqqao2mJ70ws2V2n86m0qzE95SY2FdpNp232UDae89nR+l9RaqzKnLtOZJjs1xVUxHqeEw9V2Y8fNido8MuvOTpyANW59fw2bcT8dRkeXztXVl+HqprxNcd6Zjemno8O7vbg3ws0Pwt07Rk2ishw2XWaaYpruxTzr17b/Hcn21XzyzDmzvvvEd/butZ8snAfXLkv64seoxdm3kuIvc2ZiNuZbmrf5tt0KEgJgexndpxpT8Xc85U37E7xuCL3sznTyospiOn/3YsefvuQwAAAAAAFZidurqTv8ACz72OnPifC+Zoe8AAAAAAAAAAAAAAAAAAAAxbjVrbK+HXC/OdY5vdpow+V4Wq7EVTtFy5t7Sj/VVtHzoTeK2rs015xCzfV+cXqrmLzXE1Xq+dPuInopp+aIiPmY4AAAK0ty8hvhHe4w8d8uyW7TXGU4GYxmZ3KY6ItUTHtYnvzP7pTI4DD2MHg7WEw1ui3Zs0RRbopjaKaYjaIh9wlHX2cL7teH/AMX43zlpwqAAAA7t5J3a+6c/FXfO1tigB1Tvv3N5mG8+TPpf6jyu7qLFW+bdxkcyzFUdNNET1/Ps2xG3SqKd1BPxm+/Bqv49xvn62NAAAA2pyIO274d/KLDfTTVAAAANV8tXQ2oOJHJo1PovS2Hs382zS1Zpw1u9ei1RVNN+3XO9U9EdFMo7p5B3KLmNvrBk3R/5zZ9KnrC+UX7wZN5Zs+k9YXyi/eDJvLNn0nrC+UX7wZN5Zs+lX1hvKLj/AOQZNH/9zZ9LqfsYnJ/4lcFM/wBXYrXuXYLC2s4w2Ft4ScNjqL81VUVXJq3inq6KodfAALa95nbo2c4dkS5OuJ426FwmN0vYw3+1eT1z9SVXa4txftVe7t1Vz0R1UzG/V099xZ6w7lF7f/wGTdP/AJ1Z9K31hfKL94Mm8s2fSesL5RfvBk3lmz6V1PIM5RfV9Ycmjeev682ej9qQjkY8HMHwW4M4HTkUUVZtiIjEZtiKZir1W/MdMbx1007zEeBtwABbXt3XAvL35KvGLityh8w1do/KctxGVYjD2aLdd/MrdquaqbdNM701dPXDSvrC+UX7wZN5Zs+k9YXyi/eDJvLNn0nrC+UX7wZN5Zs+k9YXyi/eDJvLNn0q0cgzlFxVE/WDJuiffmz6UnvB3Jsfp3hZkGR5pRTRjcBgLdnEU0VxVEVUx07THXDJYjoiO53dkeXLH5NXKU4y8b8z1RTkmVRldFX1PlVmvObUep2KeiJ2meiatudMd+Wqp5BvKLmenIMm3+ObPpU9YXyi/eDJvLNn0nrC+UX7wZN5Zs+k9YXyi/eDJvLNn0qxyDeUXEbfWDJun/zmz6W/+x78kPWXDfixiNa8TsvwFm5l1iIymxYxdGIiq7V13J5vuZp2jb/NLuOnu7dML46gAAAAW3J6uhxr2SHkq6o4tatyvWPDjA4K5m02/qfNLN/E02IuUxHtLnOq6JmIiKdnMvrC+UX7wZN5Zs+k9YXyi/eDJvLNn0nrC+UX7wZN5Zs+k9YXyi/eDJvLNn0qxyDOUXE7/WDJvLNn0s15PXJR5TnC7i/kutcuyHKd8uxFM4i1Gd2Y9WszMc+ienqmP3JLcPNc2KJuRza5pjnRvvtK8B879FNyiqiuimqiqNqqao3iqO9s1Xxb5OHB3iPFVzUOi8DTi6qdqMXg6PULlHh9rtEz44lzZxK7HDkWIqru6G1xisFM7zFrNLUXqYnvRNEU/taN1xyDeOmSV1VZbgstznD0f+JYxdNFc+KiZ3at1JyeeNeRVzGO4aaimmnruWMvuXKI6dvdRGzEMz0Zq3LqubjtNZph5idtruFrp6e7HU8O5Zu01TTVariYnaYmmeiVvqdz/wCnV+Z9cPhcVfu02rOHu3LlXuaaaJmZe9lGgNb5rNNOWaSznFzV1eo4Kurf80M80nyXuO2ob1NvC8Oc4wvqk9FWPw9WHp8czVEbQ29w+7HlxazWumrVGb5Pp+3v0xFz6qq2/wBExtLoXhP2P3hTp+uzi9V47MdSYmmP7Sxdri1hqp8FNMRV/wDk6W4f6C0bojLaMBpPTeX5TZt082n6nsxFe3emufbT88sjo6t9lSepjPFvJMRqXhTqTT2Dt014jNcpxOEtUVVxTTVVXbqpjerudM9aMG7yDOUT6pVzMgybm7zzf/bNnq/Ot9YXyi/eDJvLNn0nrC+UX7wZN5Zs+k9YXyi/eDJvLNn0pDORToTUXDfk6ZDo/VWHs4fNMvorpv0Wb0XaYmapmNqo6J622aepUlw52R/kzcWOMPHLAan0PleX4nLsPklrCXK8RmFuxVF2m5dqmIpq6dtqqelz7PIM5RczvOQZN5Zs+lT1hfKL94Mm8s2fSesL5RfvBk3lmz6T1hfKL94Mm8s2fSesL5RfvBk3lmz6T1hfKL94Mm8s2fSesL5RfvBk3lmz6T1hfKL94Mm8s2fSesL5RfvBk3lmz6T1hfKL94Mm8s2fSesL5RfvBk3lmz6T1hfKL94Mm8s2fSesL5RfvBk3lmz6T1hfKL94Mm8s2fSesL5RfvBk3lmz6T1hfKL94Mm8s2fSesL5RfvBk3lmz6T1hfKL94Mm8s2fSesL5RfvBk3lmz6T1hfKL94Mm8s2fSesL5RfvBk3lmz6T1hnKL94Mm8s2fSr6w7lFz0fWDJun/zqz6UqGhMDiMs0Rk2W4ymmnEYPLrFi9FNW8RXRbppqiJ7vTEvVAAAAAAAAAAAAAAAAAAABbV01I9uzEcX/AKpzTL+EWT4uareF5uLziLdXXXMb27VXg25tTg6eqf2rQAABfaiZnmxEbz0Qlf7FxwgjhzwHt6gzPC+p53qrm4q/zqdqrVmPtdEx3JjeqZ8cOnAJR19nC+7Xh/8AF+N85acKgAAAO7eSd2vunPxV3ztbYoA9jQeR3tRaqwmV2Kei5XFVyruU0x1z87q3LcJYwOX2cHhqOZasW4oop70RGz7gp3UE/Gb78Gq/j3G+frY0AAADanIg7bvh38osN9NNUAAAAAAAAAAAAAAAAAAAAAAAAAAAAAClURVG1URMT3Jfnu5dl9z7ZgMNX/ms0z/2fCciySevJsv/AFWj0H1hyP3my/8AVaPQrTkeS0zvTk+Aie/GFo9D72cDgrX2rB4ej/Lapj/s/QAAAAAAAAAAAAAAAAAAAAAAAAAAAAAAAAAMP48a7yzhrwpzrWeaXKaLWW4Wqu3E9dd2eiinbu71THzIS+Iepcz1hrTM9TZxequ43NMVXiLs1Vb82aqpnmx4I6o8EPGiZ22UAAAXbRtHc8LeHY/uEVfFrlBZdgcXh/VMlyiqnG5nVVTvRVRTO8W5/wA8xMJh8Jat4ezRYs0RTbtURRRER1REbRD6gSjr7OF92vD/AOL8b5y04VAAAAd28k7tfdOfirvna2xQOrpP37b7d5vrk1aYjL9P155ire1/G9FnePc247vz9DaNPUqCndQT8Zvvwar+Pcb5+tjQAAANqciDtu+Hfyiw3001QAAAAAAAAAAAAAAAAAAAAAAAAAAAAAAAAAAAAAAAAAAAAAAAAAAAAAAAAAAAAAAAACk1Qjo7MHxkjNtTYLhNkuJmcLlcxis2miroruzHtKN470TO8T3dnDdzuLQAABfbiqqqKaKZqmro2jpmfElu7Gpwa+xbwKsZjmdimnPdSbYzFzNO1Vq3MR6nb8UR7b/U6MpjZUCUdfZwvu14f/F+N85acKgAAAO7eSd2vunPxV3ztbYoD3OHWn72pdWYbK7W8W6qufeq/wANEdbqnA4W1hMHawtiimi1ZoiiimOqIh946gFO6gn4zffg1X8e43z9bGgAAAbU5EHbd8O/lFhvppqgAAAAAAAAAAAAAAAAAAAAAAAAAAAAAAAAAAAAAAAAAAAAAAAAAAAAAAAAAAAAAAAAGE8oTiBlvDHhFnessyu0xTl+GqmzRM9N27Me1pjvzv07eBCdrfUOZar1bmWpM4v1XsfmmKrxWIr36666t5+bp6nk1TvH71AAADaW/Ox2cI6+KvKDy+jF2JryfIaqcwx9U07xPMneiifHVFMbd5L/AIa3btWKLVqmKbdFMU0Ux1REdULwCUdfZwvu14f/ABfjfOWnCoAAADu3kndr7pz8Vd87W2KBPV34b+5NumPrZpuc6xNvbEZh7iZjpptx1fn6WzgBTuoJ+M334NV/HuN8/WxoAAAG1ORB23fDv5RYb6aaoAAAAAAAAAAAAAAAAAAAAAAAAAAAAAAAAAAAAAAAAAAAAAAAAAAAAAAAAAAAAAAAABGv2XvjDVn+vsLwtybFzOAyL+2zKLdXtbmJnoimfDRET/1OKqo2lQAAAjrfWzRXdu02rVE1VXJ5tMRG81TM9EJeOx0cH7PCrk/5fcxmFijPNQW6cdmFzb20RVG9uie9tTNMTHfdAUdSoBKOvs4X3a8P/i/G+ctOFQAAAHdvJO7X3Tn4q752tsUO709TIOGWnq9S6wwuX82fUaavVMRV3Itx0zDqbB2LWGwtvD2aIot26YpppjuRD7ACndQT8Zvvwar+Pcb5+tjQAAANqciDtu+Hfyiw3001QAAAAAAAAAAAAAAAAAAAAAAAAAAAAAAAAAAAAAAAAAAAAAAAAAAAAAAAAAAAAAAAAT1NfcpniZl/CbgznGsswrpmvCWZpwluf/Gv1bxRT88oVtXZ3j9Samx+e5pfrxGMzDEVX792ud5qqqnd5lXWoAAArT1w6H7G/wAHa+KnHvB4zHYWa8h07XGMx9VUdFyqPcUeCedtPiiUulNNMUxEUxERHRG3UuACUdfZwvu14f8AxfjfOWnCoAAADu3kndr7pz8Vd87W2KH5+jqdCcnHS1WT6aqzXF2+bisw6aYnrpt9z8/W2RtAAKd1BPxm+/Bqv49xvn62NAAAA2pyIO274d/KLDfTTVAAAAAAAAAAAAAAAAAAAAAAAAAAAAAAAAAAAAAAAAAAAAAAAAAAAAAAAAAAAAAAAAClXuUZvZd+MM6n4m4bhplGK52W6c9vjeZV0XMVVETtO3RMRTzdvDMuNZlQAAAh9LFqu7fotWqZqruVRTREd2ZnaITCdj44R0cJ+T5l+ExmHi3nOc0xjszqqp2riqqN6bc/5ImYb2AAlHX2cL7teH/xfjfOWnCoAAADu3kndr7pz8Vd87W2KR3GScKdPV6l1lhcHzJmzRVFy/O3RFMdPT4+p1JhrdFmzRatUxTbopimmI7kQ+gAKd1BPxm+/Bqv49xvn62NAAAA2pyIO274d/KLDfTTVAAAAAAAAAAAAAAAAAAAAAAAAAAAAAAAAAAAAAAAAAAAAAAAAAAAAAAAAAAAAAAAAKTMRLWvK14oYPhJwNzrVt67TGLtWZtZfRPXXiK/a0dHdiJmJnwQhb1FmuMz3PcZnGZ3q72Lx1+q9fuVTvNVVU7y/AAAAK079x0p2MXg5TxP46W82zXC+q5Fpjm4rFRVG9Fy7M/2dufHtVPzJZopmI2p6O9E9ULwAJR19nC+7Xh/8X43zlpwqAAAA7t5J3a+6c/FXfO1tinT0dG879EOieT5pb6y6UpzG/b2xeYxz6t+umj+7H7pbC6VQAU7qCfjN9+DVfx7jfP1saAAABtTkQdt3w7+UWG+mmqAAAAAAAAAAAAAAAAAAAAAAAAAAAAAAAAAAAAAAAAAAAAAAAAAAAAAAAAAAAAAAAAW195GD2WvjHTrLirY4fZLjIu5Rpmf959Tq3ou4qY6Z3/5Ynm7d+HIIAAAPtgMPexeLt4bDW6rt69XFFuimN5qqmdoiExnIL4S2+EXAHK8pxVimjOsyp+rMzq29t6pVEe037sUx1eOW7AACUdfZwvu14f/ABfjfOWnCoAAADu3kndr7pz8Vd87W2KyfhHpu5qbWdjDVUzOGszF3EVf4aY7nzzs6isW6LVqm3bpimiiIimI6ojuQvAAU7qCfjN9+DVfx7jfP1saAAABtTkQdt3w7+UWG+mmqAAAAAAAAAAAAAAAAAAAAAAAAAAAAAAAAAAAAAAAAAAAAAAAAAAAAAAAAAAAAAAAAat5YvFHCcI+BOc6ouXIjG12Zw2XWudtVcv1xtG3+WN6v9KF7Osdi8zzXFZljr03sVjL1V6/cq6ZrrqmZqn55mX5AAABdTPREbb+B1F2LPhDPEHjnRqbM8LFeTaV5uJqmqn2t2/vvbp8O0xvKVemI9rtERERtG3cXgAEo6+zhfdrw/8Ai/G+ctOFQAAAHdvJO7X3Tn4q752tsXrnbv8Ac78ujuT/AKa+sejaMXft83F5hEXLm/XFP92P2s9p6lQAFO6gn4zffg1X8e43z9bGgAAAbU5EHbd8O/lFhvppqgAAAAAAAAAAAAAAAAAAAAAAAAAAAAAAAAAAAAAAAAAAAAAAAAAAAAAAAAAAAAAAAWzPh6utFn2VzjNXrzjJ/sRlWK52SaWrm3XFE+1u4rqrq/0+2pifC5QmZ22UAAAH6crweJzDH2MDgrVV7E4q7Tas2qI9tXXVO0RHhmZhMtyJuEmE4RcCMsyCaIqzLGURi8zu83aar1cRO3zRzY8cS29ERCoABKOvs4X3a8P/AIvxvnLThUAAAB3byTu1807+Ju+drbz4MaZnUusrNq9TP1Lhdrt+e5MR1R8//Z05aooooppoiIppjaIjuLgABTuoJ+M334NV/HuN8/WxoAAAG1ORB23fDv5RYb6aaoAAAAAAAAAAAAAAAAAAAAAAAAAAAAAAAAAAAAAAAAAAAAAAAAAAAAAAAAAAAAAAAGouWrxWwvCPgPnGoPVqYzK/bnC5bbqnpuXq4nbbwRETP5kMuZ4vE4/ML+Nxl6q9iMRcquXblc71V1TO8zPzvgAAAKxG7q7sUvB3/brjXGss1w3qmTaW/tY59O9F7Ez7in/TvFfzJTaI6FwAASjr7OF92vD/AOL8b5y04VAAAAd3ck2N+T9pyO76lc2iPxtbtbgNpj/Z/Rlu9ft83GY/a7d366Y7kf8Arvs6jqAABTuoJ+M334NV/HuN8/WxoAAAG1ORB23fDv5RYb6aaoAAAAAAAAAAAAAAAAAAAAAAAAAAAAAAAAAAAAAAAAAAAAAAAAAAAAAAAAAAAAAAAUmYjrnqRS9lO4wfZD4616YyzFTcyXSk1Ye3zat6bl+Z/tK478dFMR87l2enpUAAAH68nwGJzPNsNl2DtVXcRi71Fm1REdNVVUxER+eYTQ8jzhbheEnAjJtMUWYjHVWYxGY3ObtVXer9tVE/5Znmx4m0aVQABSUdnZwvu14f/F+N85acKgAAArSkf7G7pqdQ8MdLerUTVhMHauXrvR0dF6vaJ8cw7copimIppp2pjo27y6AAAU7qCfjN9+DVfx7jfP1saAAABtPkQdt3w7+UWG+mmrAAAAAAAAAAAAAAAAAAAAAAAAAAAAAAAAAAAAAAAAAAAAAAAAAAAAAAAAAAAAAAAHl6twONzPTGPy7Lc0ry3F4rDV2rONotxcqw9UxMRXFMzG8x3t3FON7G5k+Lxl3FX+LeZ3Lt6ua666soomapmd5n7Y+fsamQ/CvmPkej+oexqZD8K+Y+R6P6h7GpkPwr5j5Ho/qHsamQ/CvmPkej+oexqZD8K+Y+R6P6h7GpkPwr5j5Ho/qHsamQ/CvmPkej+oexqZD8K+Y+R6P6h7GpkPwr5j5Ho/qHsamQ/CvmPkej+oexqZD8K+Y+R6P6h7GpkPwr5j5Ho/qM05P/ACEdK8NuKmWazxmtMXqCcqrm5YwWIy6i1bm5MTEVTMVzvtvM7bdezrqOoAABSrqc/ctHku4DlCZ1kOYY3V+JyKcjw96zTRZwVN/1b1Sqmd5maqdtub+1pP2NTIfhXzHyPR/UPY1Mh+FfMfI9H9Q9jUyH4V8x8j0f1D2NTIfhXzHyPR/UPY1Mh+FfMfI9H9Q9jUyH4V8x8j0f1D2NTIfhXzHyPR/UPY1Mh+FfMfI9H9Q9jUyH4V8x8j0f1D2NTIfhXzHyPR/UPY1Mh+FfMfI9H9Q9jUyH4V8x8j0f1D2NTIono4sZj5Ho/qOp+S/wly/gzwtwejcDmVzNJw01TXjbtiLVVzeqatubEzttv32xwAAFv95xJq7sdOSZ9qzNM9r4o5hYqzPHXsXVajKKJi3Nyua+bv6p07b7bvO9jUyH4V8x8j0f1D2NTIfhXzHyPR/UPY1Mh+FfMfI9H9Q9jUyH4V8x8j0f1D2NTIfhXzHyPR/UPY1Mh+FfMfI9H9Q9jUyH4V8x8j0f1D2NTIfhXzHyPR/UPY1Mh+FfMfI9H9Q9jUyH4V8x8j0f1D2NTIfhXzHyPR/UPY1Mh+FfMfI9H9Rk3BnkCZNw94raf1vY4k47HXMgzC1jacNXlVFEXponfmzV6pO2/f2dj09SoAAAAAAAAAAAAAAAAAAAAAAAAAAAAAAAAAAAAAAAAAAAAAAAAAAAAAAAAAAAAAABsR0dQAAAAAAAAAAAAAAAAAAAAAAAAAAAAAAAAAAAAAAAAAAAAAAAAAAAAAAAAAAAAAAAAAAAAAAAAAAAAAAAAAAAAAAAAAAAAAAAAAAAAAAAAAAAAAAAAAAAAAAAAAAAAAAAAAAAAAAAAAAAAAAAAAAAAAAAAAAAAAAAAAAAAAAAAAAAAAAAAAAAAAAAAAAAAAAAAAAAAAAAAAAAAAAAAAAAAAAAAAAAAAAAAAAAAAAAAAAAAAAAAAAAAAAAAAAAAAAAAAAAAAAAAAAAAAAAAAAAAAAAAAAAAAAAAAAAAAAAAAAAAAAAAAAAAAAAAAAAAAAAAAAAAAAAAAAAAAAAAAAAAAAAAAAAAAAAAAAAAAAAAAAAAAAAAAAAAAAAAAAAAAAAAAAAAAAAAAAAAAAAAAAAAAAAAAAAAAAAAAAAAAAAAAAAAAAAAAAAAAAAAAAAAAAAAAAAAAAAAAAAAAAAAAAAAAAAAAAAAAAAAAAAAAAAAAAAAAAAAAAAAAAAAAAAAAAAAAAAAAAAAAAAAAAAAAAAAAAAAAAAAAAAAAAAAAAAAAAAAAAAAAAAAAAAAAAAAAAAAAAAAAAAAAAAAAAAAAAAAAAAAAAAAAAAAAAAAAAAAAAAAAAAAAAAAAAAAAAAAAAAAAAAAAAAAAAAAAAAAAAAAAAAAAAAAAAAAAAAAAAAAAAAAAAAAAAAAAAAAAAAAAAAAAAAAAAAAAAAAAAAAAAAAAAAAAAAAAAAAAAAAAAAAAAAAAAAAAAAAAAAAAAAAAAAAAAAAAAAAAAAAAAAAAAAAAAAAAAAAAAAAAAAAAAAAAAAAAAAAAAAAAAAAAAAAAAAAAAAAAAAAAAAAAAAAAAAAAAAAAAAAAAAAAAAAAAAAAAAAAAAAAAAAAAAAAAAAAAAAAAAAAAAAAAAAAAAAAAAAAAAAAAAAAAAAAAAAAAAAAAAAAAAAAAAAAAAAAAAAAAAAAAAAAAAAAAAAAAAAAAAAAAAAAAAAAAAAAAAAAAAAAAAAAAAAAAAAAAAAAAAAAAAAAAAAAAAAAAAAAAAAAAAAAAAAAAAAAAAAAAAAAAAAAAAAAAAAAAAAAAAAAAAAAAAAAAAAAAAAAAAAAAAAAAAAAAAAAAAAAAAAAAAAAAAAAAAAAAAAAAAAAAAAAAAAAAAAAAAAAAAAAAAAAAAAAAAAAAAAAAAAAAAAAAAAAAAAAAAAAAAAAAAAAAAAAAAAAAAAAAAAAAAAAAAAAAAAAAAAAAAAAAAAAAAAAAAAAAAAAAAAAAAAAAAAAAAAAAAAAAAAAAAAAAAAAAAAAAAAAAAAAAAAAAAAAAAAAAAAAAAAAAAAAAAAAAAAAAAAAAAAAAAAAAAAAAAAAAAAAAAAAAAAAAAAAAAAAAAAAAAAAAAAAAAAAAAAAAAAAAAAAAAAAAAAAAAAAAAAAAAAAAAAAAAAAAAAAAAAAAAAAAAAAAAAAAAAAAAAAAAAAAAAAAAAAAAAAAAAAAAAAAAAAAAAAAAAAAAAAAAAAAAAAAAAAAAAAAAAAAAAAAAAAAAAAAAAAAAAAAAAAAAAAAAAAAAAAAAAAAAAAAAAAAAAAAAAAAAAAAAAAAAAAAAAAAAAAAAAAAAAAAAAAAAAAAAAAAAAAAAAAAAAAAAAAAAAAAAAAAAAAAAAAAAAAAAAAAAAAAAAAAAAAAAAAAAAAAAAAAAAAAAAAAAAAAAAAAAAAAAAAAAAAAAAAAAAAAAAAAAAAAAAAAAAAAAAAAAAAAAAAAAAAAAAAAAAAAAAAAAAAAAAAAAAAAAAAAAAAAAAAAAAAAAAAAAAAAAAAAAAAAAAAAAAAAAAAAAAAAAAAAAAAAAAAAAAAAAAAAAAAAAAAAAAAAAAAAAAAAAAAAAAAAAAAAAAAAAAAAAAAAAAAAAAAAAAAAAAAAAAAAAAAAAAAAAAAAAAAAAAAAAAAAAAAAAAAAAAAAAAAAAAAAAAAAAAAAAAAAAAAAAAAAAAAAAAAAAAAAAAAAAAAAAAAAAAAAAAAAAAAAAAAAAAAAAAAAAAAAAAAAAAAAAAAAAAAAAAAAAAAAAAAAAAAAAAAAAAAAAAAAAAAAAAAAAAAAAAAAAAAAAAAAAAAAAAAAAAAAAAAAAAAAAAAAAAAAAAAAAAAAAAAAAAAAAAAAAAAAAAAAAAAAAAAAAAAAAAAAAAAAAAAAAAAAAAAAAAAAAAAAAAAAAAAAAAAAAAAAAAAAAAAAAAAAAAAAAAAAAAAAAAAAAAAAAAAAAAAAAAAAAAAAAAAAAAAAAAAAAAAAAAAAAAAAAAAAAAAAAAAAAAAAAAAAAAAAAAAAAAAAA/9k=;" vertex="1" parent="1">
          <mxGeometry x="325" y="577.78" width="230.92" height="94.44" as="geometry" />
        </mxCell>
      </root>
    </mxGraphModel>
  </diagram>
</mxfile>
